<?xml version="1.0" encoding="utf-8"?>
<!-- Generator: Adobe Illustrator 23.0.0, SVG Export Plug-In . SVG Version: 6.00 Build 0)  -->
<svg version="1.1" id="图层_1" xmlns="http://www.w3.org/2000/svg" xmlns:xlink="http://www.w3.org/1999/xlink" x="0px" y="0px"
	 viewBox="0 0 400 400" style="enable-background:new 0 0 400 400;" xml:space="preserve">
<style type="text/css">
	.st0{fill:#EF2E5C;stroke:#000000;stroke-width:3;stroke-linecap:round;stroke-miterlimit:10;}
	.st1{fill:url(#SVGID_1_);}
	.st2{fill:url(#SVGID_2_);}
	.st3{fill:url(#SVGID_3_);}
	.st4{fill:url(#SVGID_4_);}
	.st5{fill:#FFFFFF;stroke:#000000;stroke-width:3;stroke-miterlimit:10;}
	.st6{fill:none;stroke:#000000;stroke-width:3;stroke-miterlimit:10;}
	.st7{fill:none;stroke:#000000;stroke-width:3;stroke-linecap:round;stroke-miterlimit:10;}
	.st8{fill:#EF2E5C;}
	.st9{fill:none;stroke:#35211D;stroke-miterlimit:10;}
	.st10{opacity:0.36;fill:#FFC5E5;}
	.st11{fill:#46B763;}
	.st12{fill:#300612;}
	.st13{fill:none;stroke:#8FCDEF;stroke-width:5;stroke-linecap:round;stroke-miterlimit:10;}
	.st14{fill:#F77CB4;stroke:#F9D9EC;stroke-width:3;stroke-miterlimit:10;}
	.st15{fill:#FFD62C;}
</style>
<g>
	<g>
		<g>
			<g>
				<path class="st0" d="M144.99,164.95c0,0,22.19,20.39,50.47,20.58c28.28,0.19,50.92-2.73,65.29,4.31l-40.62,95.93
					c0,0-1.09,20.83-53.24,6.1c0,0-41.13-13.3-41.85-30.53L144.99,164.95z"/>
				<linearGradient id="SVGID_1_" gradientUnits="userSpaceOnUse" x1="152.41" y1="223.5938" x2="162.0156" y2="240.2311">
					<stop  offset="0" style="stop-color:#FFFFFF;stop-opacity:0.8"/>
					<stop  offset="1" style="stop-color:#FFFFFF;stop-opacity:0.6"/>
				</linearGradient>
				<circle class="st1" cx="157.21" cy="231.91" r="9.61"/>
				<linearGradient id="SVGID_2_" gradientUnits="userSpaceOnUse" x1="196.3109" y1="248.2685" x2="204.4929" y2="262.4401">
					<stop  offset="0" style="stop-color:#FFFFFF;stop-opacity:0.8"/>
					<stop  offset="1" style="stop-color:#FFFFFF;stop-opacity:0.6"/>
				</linearGradient>
				<circle class="st2" cx="200.4" cy="255.35" r="8.18"/>
				<linearGradient id="SVGID_3_" gradientUnits="userSpaceOnUse" x1="220.9717" y1="208.437" x2="231.1462" y2="226.0596">
					<stop  offset="0" style="stop-color:#FFFFFF;stop-opacity:0.8"/>
					<stop  offset="1" style="stop-color:#FFFFFF;stop-opacity:0.6"/>
				</linearGradient>
				<circle class="st3" cx="226.06" cy="217.25" r="10.17"/>
				<linearGradient id="SVGID_4_" gradientUnits="userSpaceOnUse" x1="158.1808" y1="264.6714" x2="166.9139" y2="279.7976">
					<stop  offset="0" style="stop-color:#FFFFFF;stop-opacity:0.8"/>
					<stop  offset="1" style="stop-color:#FFFFFF;stop-opacity:0.6"/>
				</linearGradient>
				<circle class="st4" cx="162.55" cy="272.23" r="8.73"/>
				<g>
					<line class="st5" x1="124.55" y1="262.91" x2="156.93" y2="98.12"/>
					<line class="st5" x1="282.6" y1="136.77" x2="218.73" y2="290.69"/>
					
						<ellipse transform="matrix(0.294 -0.9558 0.9558 0.294 42.4211 293.1409)" class="st6" cx="219.64" cy="117.86" rx="21.87" ry="65.4"/>
					
						<ellipse transform="matrix(0.294 -0.9558 0.9558 0.294 -142.4847 359.0137)" class="st6" cx="171.78" cy="275.96" rx="16.65" ry="49.09"/>
				</g>
				<g>
					<g>
						<g>
							<g>
								<path class="st7" d="M321.52,113.92l-57.29-28.27c-6.92-3.42-15.31-0.57-18.72,6.35l-76.71,155.46l12.65,6.24l70.83-143.55
									c3.35-6.8,11.58-9.59,18.38-6.23l44.87,22.14"/>
							</g>
							<circle class="st6" cx="317.09" cy="119.71" r="7.05"/>
						</g>
						<path class="st6" d="M171.04,242.94l-2.5,5.02c0,0,3.01,7.82,12.6,6.31l2.5-5.02"/>
					</g>
					<path class="st5" d="M87.53,281.33"/>
				</g>
			</g>
			<g>
				<path class="st8" d="M180.4,176.39l-1.23-0.52c0,0,0.48-16.55-10.17-16.34s-0.99,8.32,4.61,11.43
					C179.21,174.06,180.4,176.39,180.4,176.39z"/>
				<path class="st8" d="M183.67,178.52l0.72-0.51c0,0-2.64-10.63,4.27-12c6.92-1.37,1.81,5.24-1.37,8.04
					C184.11,176.85,183.67,178.52,183.67,178.52z"/>
			</g>
			<path class="st9" d="M131.69,261.66c0,0,10.84-7.39,25.84-0.14"/>
			<path class="st9" d="M212.56,291.28c2.08-1.31-22.75,6.86-37.99-1.22"/>
			<path class="st10" d="M132,253.03l-0.11-0.02c-0.89-0.16-1.48-1.01-1.32-1.9l5.9-32.31c0.16-0.89,1.01-1.48,1.9-1.32l0.11,0.02
				c0.89,0.16,1.48,1.01,1.32,1.9l-5.9,32.31C133.74,252.61,132.89,253.2,132,253.03z"/>
		</g>
		<g>
			<path class="st8" d="M278.02,263.62c0,0-20.56-6.6-20.95,7.37c-0.39,13.97,6.21,29.87,13.97,32.98s14.74,2.72,20.17,0
				c5.43-2.72,22.89-24.05,12.42-37.63C293.16,252.75,278.02,263.62,278.02,263.62z"/>
			<polygon class="st11" points="274.57,259.53 262.51,258.19 267.16,263.62 262.51,272.15 274.53,270.99 281.9,279.14 
				281.9,268.66 293.16,275.26 288.5,263.62 298.2,259.35 280.35,258.19 274.15,252.75 			"/>
			<path class="st12" d="M266,277.58c0,0-1.88,1.98-0.41,3.26C267.04,282.12,266,277.58,266,277.58z"/>
			<path class="st12" d="M272.98,281.08c0,0-1.88,1.98-0.41,3.26S272.98,281.08,272.98,281.08z"/>
			<path class="st12" d="M278.41,277.58c0,0-1.88,1.98-0.41,3.26S278.41,277.58,278.41,277.58z"/>
			<path class="st12" d="M285.01,279.52c0,0-1.88,1.98-0.41,3.26C286.06,284.06,285.01,279.52,285.01,279.52z"/>
			<path class="st12" d="M291.22,276.03c0,0-1.88,1.98-0.41,3.26S291.22,276.03,291.22,276.03z"/>
			<path class="st12" d="M298.59,279.14c0,0-1.88,1.98-0.41,3.26C299.63,283.67,298.59,279.14,298.59,279.14z"/>
			<path class="st12" d="M299.36,269.05c0,0-1.88,1.98-0.41,3.26C300.41,273.59,299.36,269.05,299.36,269.05z"/>
			<path class="st12" d="M291.99,286.12c0,0-1.88,1.98-0.41,3.26C293.04,290.66,291.99,286.12,291.99,286.12z"/>
			<path class="st12" d="M279.19,287.67c0,0-1.88,1.98-0.41,3.26C280.24,292.21,279.19,287.67,279.19,287.67z"/>
			<path class="st12" d="M269.88,288.06c0,0-1.88,1.98-0.41,3.26C270.92,292.6,269.88,288.06,269.88,288.06z"/>
			<path class="st12" d="M274.15,295.82c0,0-1.88,1.98-0.41,3.26C275.19,300.36,274.15,295.82,274.15,295.82z"/>
			<path class="st12" d="M285.78,293.88c0,0-1.88,1.98-0.41,3.26C286.83,298.42,285.78,293.88,285.78,293.88z"/>
			<path class="st12" d="M294.32,293.88c0,0-1.88,1.98-0.41,3.26C295.37,298.42,294.32,293.88,294.32,293.88z"/>
			<path class="st12" d="M282.29,299.31c0,0-1.88,1.98-0.41,3.26S282.29,299.31,282.29,299.31z"/>
		</g>
		<g>
			<path class="st8" d="M309.63,282.8c0,0-13.23-7.9-15.75,1.75s-0.5,21.76,4.39,25.17c4.89,3.41,9.81,4.26,14.02,3.25
				c4.21-1.01,19.79-13.03,14.69-24.15C321.9,277.69,309.63,282.8,309.63,282.8z"/>
			<polygon class="st11" points="307.3,281.53 299.72,276.52 302.08,281.05 297.47,286.23 306.02,287.36 309.83,294.21 
				311.51,286.93 318.27,293.32 316.91,284.49 324.34,283.08 312.12,279.4 308.69,274.62 			"/>
			<path class="st12" d="M299.02,290.56c0,0-1.62,1.07-0.81,2.2S299.02,290.56,299.02,290.56z"/>
			<path class="st12" d="M303.31,294.12c0,0-1.62,1.07-0.81,2.2S303.31,294.12,303.31,294.12z"/>
			<path class="st12" d="M307.65,292.57c0,0-1.62,1.07-0.81,2.2S307.65,292.57,307.65,292.57z"/>
			<path class="st12" d="M311.92,294.98c0,0-1.62,1.07-0.81,2.2C311.92,298.3,311.92,294.98,311.92,294.98z"/>
			<path class="st12" d="M316.8,293.55c0,0-1.62,1.07-0.81,2.2S316.8,293.55,316.8,293.55z"/>
			<path class="st12" d="M321.42,296.9c0,0-1.62,1.07-0.81,2.2S321.42,296.9,321.42,296.9z"/>
			<path class="st12" d="M323.59,290.01c0,0-1.62,1.07-0.81,2.2S323.59,290.01,323.59,290.01z"/>
			<path class="st12" d="M315.71,300.69c0,0-1.62,1.07-0.81,2.2C315.71,304.01,315.71,300.69,315.71,300.69z"/>
			<path class="st12" d="M306.56,299.7c0,0-1.62,1.07-0.81,2.2S306.56,299.7,306.56,299.7z"/>
			<path class="st12" d="M300.03,298.47c0,0-1.62,1.07-0.81,2.2S300.03,298.47,300.03,298.47z"/>
			<path class="st12" d="M301.74,304.55c0,0-1.62,1.07-0.81,2.2S301.74,304.55,301.74,304.55z"/>
			<path class="st12" d="M310.15,305.08c0,0-1.62,1.07-0.81,2.2S310.15,305.08,310.15,305.08z"/>
			<path class="st12" d="M316.08,306.45c0,0-1.62,1.07-0.81,2.2S316.08,306.45,316.08,306.45z"/>
			<path class="st12" d="M306.84,308.29c0,0-1.62,1.07-0.81,2.2C306.84,311.61,306.84,308.29,306.84,308.29z"/>
		</g>
		<path class="st13" d="M126.16,144.41c0,0-15.24,6.77-4.51,16.93"/>
		<path class="st13" d="M284.11,175.03c0,0,8.36,14.42,17.31,2.67"/>
		<path class="st13" d="M196.51,75.75c0,0,3.74,6.68,7.7,1.27"/>
		<path class="st14" d="M104.16,268.27c-0.1,0.23-0.2,0.47-0.29,0.71c-1.56,4.53,0.85,9.47,5.38,11.04
			c4.53,1.56,9.47-0.85,11.04-5.38c0.08-0.24,0.15-0.49,0.21-0.74L104.16,268.27z"/>
		<path class="st14" d="M291.12,136.96c0.02,0.42,0.05,0.85,0.11,1.28c1.08,7.93,8.39,13.48,16.32,12.39
			c7.93-1.08,13.48-8.39,12.39-16.32c-0.06-0.43-0.14-0.84-0.24-1.26L291.12,136.96z"/>
	</g>
	<polygon class="st15" points="112.89,220.4 111.92,225.61 115.67,229.37 110.41,230.06 108,234.78 105.72,230 100.48,229.16 
		104.33,225.51 103.5,220.27 108.16,222.8 	"/>
	<polygon class="st15" points="296.35,209.04 293.34,211.85 293.96,215.93 290.35,213.94 286.67,215.78 287.44,211.74 
		284.55,208.81 288.64,208.29 290.53,204.64 292.28,208.37 	"/>
</g>
</svg>
