<?xml version="1.0" encoding="utf-8"?>
<!-- Generator: Adobe Illustrator 23.0.0, SVG Export Plug-In . SVG Version: 6.00 Build 0)  -->
<svg version="1.0" id="图层_1" xmlns="http://www.w3.org/2000/svg" xmlns:xlink="http://www.w3.org/1999/xlink" x="0px" y="0px"
	 viewBox="0 0 400 400" style="enable-background:new 0 0 400 400;" xml:space="preserve">
<style type="text/css">
	.st0{display:none;}
	.st1{display:inline;fill:#302C91;}
	.st2{display:inline;fill:#6995ED;}
	.st3{display:inline;}
	.st4{fill:#C1D4F4;}
	.st5{display:inline;fill:#56BCEF;}
	.st6{display:inline;fill:#B0E3F7;}
	.st7{display:inline;fill:url(#SVGID_1_);}
	.st8{display:inline;fill:#C6D7E5;}
	.st9{clip-path:url(#SVGID_3_);fill:#148AE2;}
	.st10{clip-path:url(#SVGID_5_);fill:#F22727;}
	.st11{display:inline;fill:#FFFFFF;}
	.st12{font-family:'Impact';}
	.st13{font-size:15.1707px;}
	.st14{fill:none;stroke:#BAC4D3;stroke-width:7;stroke-linecap:round;stroke-miterlimit:10;}
	.st15{fill:none;stroke:#D6DFED;stroke-width:7;stroke-linecap:round;stroke-miterlimit:10;}
	.st16{display:inline;fill:#F7931E;}
	.st17{font-family:'FZCHAOZYTS--GB1-0';}
	.st18{font-size:16.4988px;}
	.st19{display:inline;fill:#EF6FAF;}
	.st20{font-size:16.4695px;}
	.st21{display:inline;fill:none;stroke:#7FB8EF;stroke-width:3;stroke-miterlimit:10;}
	.st22{display:inline;fill:#7FB8EF;}
	.st23{display:inline;fill:none;stroke:#80EDAC;stroke-width:3;stroke-miterlimit:10;}
	.st24{display:inline;fill:#EF2934;}
	.st25{display:inline;fill:none;stroke:#56CC8B;stroke-width:3;stroke-miterlimit:10;}
	.st26{fill:#FCE22B;}
	.st27{fill:#F926AE;}
	.st28{fill:#F42C9A;}
	.st29{fill:none;stroke:#28A4F7;stroke-width:16;stroke-miterlimit:10;}
	.st30{fill:#28A4F7;}
	.st31{fill:none;stroke:#28A4F7;stroke-width:4;stroke-miterlimit:10;}
	.st32{fill:#5AF298;}
	.st33{fill:#2A8BF4;}
	.st34{fill:none;stroke:#FCFCFC;stroke-width:3;stroke-linecap:round;stroke-miterlimit:10;}
	.st35{fill:#FFFFFF;}
	.st36{fill:#0695F7;}
	.st37{fill:#1A9EE8;}
	.st38{fill:#FFF86C;}
	.st39{fill:#33AA39;}
	.st40{fill:#FF6EC8;}
	.st41{fill:#99DBFF;}
	.st42{fill:#53A03A;}
	.st43{fill:#6CBC55;}
</style>
<g class="st0">
	<path class="st1" d="M62.74,299.76h-7.75c-2.19,0-3.99-1.79-3.99-3.99l0,0c0-2.19,1.79-3.99,3.99-3.99h7.75
		c2.19,0,3.99,1.79,3.99,3.99l0,0C66.72,297.96,64.93,299.76,62.74,299.76z"/>
	<path class="st2" d="M114.9,321.52h-44.2c-2.19,0-3.99-1.79-3.99-3.99v0c0-2.19,1.79-3.99,3.99-3.99h44.2
		c2.19,0,3.99,1.79,3.99,3.99v0C118.89,319.72,117.1,321.52,114.9,321.52z"/>
	<path class="st2" d="M279.98,321.52H127.16c-2.19,0-3.99-1.79-3.99-3.99v0c0-2.19,1.79-3.99,3.99-3.99h152.82
		c2.19,0,3.99,1.79,3.99,3.99v0C283.97,319.72,282.17,321.52,279.98,321.52z"/>
	<path class="st2" d="M326.43,321.52h-32.76c-2.19,0-3.99-1.79-3.99-3.99v0c0-2.19,1.79-3.99,3.99-3.99h32.76
		c2.19,0,3.99,1.79,3.99,3.99v0C330.42,319.72,328.62,321.52,326.43,321.52z"/>
	<g class="st3">
		<path class="st4" d="M113.47,342h-12.03c-2.19,0-3.99-1.79-3.99-3.99l0,0c0-2.19,1.79-3.99,3.99-3.99h12.03
			c2.19,0,3.99,1.79,3.99,3.99l0,0C117.45,340.21,115.66,342,113.47,342z"/>
		<path class="st4" d="M214.8,342h-89.02c-2.19,0-3.99-1.79-3.99-3.99l0,0c0-2.19,1.79-3.99,3.99-3.99h89.02
			c2.19,0,3.99,1.79,3.99,3.99l0,0C218.78,340.21,216.99,342,214.8,342z"/>
		<path class="st4" d="M272.8,342h-44.87c-2.19,0-3.99-1.79-3.99-3.99l0,0c0-2.19,1.79-3.99,3.99-3.99h44.87
			c2.19,0,3.99,1.79,3.99,3.99l0,0C276.78,340.21,274.99,342,272.8,342z"/>
		<path class="st4" d="M292.13,342h-4.88c-2.19,0-3.99-1.79-3.99-3.99l0,0c0-2.19,1.79-3.99,3.99-3.99h4.88
			c2.19,0,3.99,1.79,3.99,3.99l0,0C296.12,340.21,294.32,342,292.13,342z"/>
	</g>
	<path class="st1" d="M125.62,299.76H75.71c-2.19,0-3.99-1.79-3.99-3.99l0,0c0-2.19,1.79-3.99,3.99-3.99h49.91
		c2.19,0,3.99,1.79,3.99,3.99l0,0C129.61,297.96,127.82,299.76,125.62,299.76z"/>
	<path class="st1" d="M350.01,299.76h-48.48c-2.19,0-3.99-1.79-3.99-3.99l0,0c0-2.19,1.79-3.99,3.99-3.99h48.48
		c2.19,0,3.99,1.79,3.99,3.99l0,0C354,297.96,352.21,299.76,350.01,299.76z"/>
	<path class="st1" d="M287.13,299.76H137.88c-2.19,0-3.99-1.79-3.99-3.99l0,0c0-2.19,1.79-3.99,3.99-3.99h149.25
		c2.19,0,3.99,1.79,3.99,3.99l0,0C291.11,297.96,289.32,299.76,287.13,299.76z"/>
	<path class="st5" d="M216.08,78.02h-26.09c-2.73,0-5.36,1.4-7.29,3.88L87.75,203.87c-2.17,2.79-0.64,7.57,2.43,7.57h125.9V78.02z"
		/>
	<path class="st6" d="M216.08,78.02h13.83c2.78,0,5.4,2.1,7.07,5.67l56.44,120.66c1.37,2.92,0.07,7.09-2.21,7.09h-75.13V78.02z"/>
	<linearGradient id="SVGID_1_" gradientUnits="userSpaceOnUse" x1="210.3609" y1="152.981" x2="218.9363" y2="152.981">
		<stop  offset="0.06" style="stop-color:#D6DFED"/>
		<stop  offset="0.8452" style="stop-color:#C9D8E6"/>
		<stop  offset="1" style="stop-color:#C6D7E5"/>
	</linearGradient>
	<path class="st7" d="M214.65,240.14L214.65,240.14c-2.36,0-4.29-1.93-4.29-4.29V70.11c0-2.36,1.93-4.29,4.29-4.29h0
		c2.36,0,4.29,1.93,4.29,4.29v165.74C218.94,238.21,217.01,240.14,214.65,240.14z"/>
	<path class="st8" d="M283.47,278.16H107.46c-1.66,0-3.04-0.94-3.17-2.16l-4.69-43.67c-0.09-0.82,0.79-1.52,1.9-1.52h205.57
		c1.33,0,2.25,0.98,1.78,1.9l-22.41,43.92C285.98,277.55,284.8,278.16,283.47,278.16z"/>
	<g class="st3">
		<defs>
			<path id="SVGID_2_" d="M301.01,290.35H109.58c-1.8,0-3.3-0.94-3.45-2.16l-5.1-43.67c-0.1-0.82,0.86-1.52,2.07-1.52h223.58
				c1.45,0,2.45,0.98,1.94,1.9l-24.37,43.92C303.74,289.75,302.45,290.35,301.01,290.35z"/>
		</defs>
		<clipPath id="SVGID_3_">
			<use xlink:href="#SVGID_2_"  style="overflow:visible;"/>
		</clipPath>
		<polygon class="st9" points="204.65,266.68 99.72,266.68 99.72,254.48 210.01,254.48 		"/>
	</g>
	<g class="st3">
		<defs>
			<path id="SVGID_4_" d="M293.15,278.16h-185c-1.8,0-3.3-0.94-3.45-2.16l-5.1-43.67c-0.1-0.82,0.86-1.52,2.07-1.52h223.58
				c1.45,0,2.45,0.98,1.94,1.9l-24.37,43.92C302.31,277.55,294.59,278.16,293.15,278.16z"/>
		</defs>
		<clipPath id="SVGID_5_">
			<use xlink:href="#SVGID_4_"  style="overflow:visible;"/>
		</clipPath>
		<polygon class="st10" points="232.14,254.48 95.31,254.48 95.31,242.29 239.13,242.29 		"/>
	</g>
	<text transform="matrix(0.9726 0 -0.2547 0.967 111.2661 258.7772)" class="st11 st12 st13">SUMMER.30</text>
	<g class="st3">
		<path class="st14" d="M66.72,166.09c0,0,0.49-14.9,12.86-14.9"/>
		<path class="st14" d="M66.72,166.58c0,0-0.49-14.9-12.86-14.9"/>
	</g>
	<g class="st3">
		<path class="st15" d="M106.19,84.82c0,0,0.32-9.67,8.35-9.67"/>
		<path class="st15" d="M104.9,85.19c0,0-0.37-11.11-9.59-11.11"/>
	</g>
	<g class="st3">
		<path class="st15" d="M322.14,174.49c0,0,0.37-11.11,9.59-11.11"/>
		<path class="st15" d="M322.14,174.86c0,0-0.37-11.11-9.59-11.11"/>
	</g>
	<text transform="matrix(0.9962 0 0 1 312.5928 116.3257)" class="st16 st17 st18">+</text>
	<text transform="matrix(0.7274 -0.6859 0.6833 0.7302 148.1319 65.4946)" class="st19 st17 st20">+</text>
	<ellipse class="st21" cx="277.54" cy="100.26" rx="3.93" ry="3.95"/>
	<ellipse class="st22" cx="107.1" cy="119.98" rx="3.93" ry="3.95"/>
	<ellipse class="st23" cx="129.61" cy="100.26" rx="7.5" ry="7.53"/>
	<ellipse class="st24" cx="287.18" cy="142.94" rx="1.79" ry="1.79"/>
	<ellipse class="st25" cx="328.81" cy="137.38" rx="4.11" ry="4.12"/>
	<g class="st3">
		<path class="st26" d="M262.9,52.52L262.9,52.52c-0.67,0-1.21-0.55-1.21-1.21v-10.1c0-0.67,0.55-1.21,1.21-1.21l0,0
			c0.67,0,1.21,0.55,1.21,1.21v10.1C264.11,51.98,263.56,52.52,262.9,52.52z"/>
		<path class="st26" d="M262.9,68.69L262.9,68.69c-0.67,0-1.21-0.55-1.21-1.21v-10.1c0-0.67,0.55-1.21,1.21-1.21l0,0
			c0.67,0,1.21,0.55,1.21,1.21v10.1C264.11,68.15,263.56,68.69,262.9,68.69z"/>
	</g>
	<g class="st3">
		<path class="st26" d="M261.42,54.35L261.42,54.35c0,0.67-0.55,1.22-1.22,1.22h-10.04c-0.67,0-1.22-0.55-1.22-1.22v0
			c0-0.67,0.55-1.22,1.22-1.22h10.04C260.88,53.13,261.42,53.68,261.42,54.35z"/>
		<path class="st26" d="M277.54,54.35L277.54,54.35c0,0.67-0.55,1.22-1.22,1.22h-10.04c-0.67,0-1.22-0.55-1.22-1.22v0
			c0-0.67,0.55-1.22,1.22-1.22h10.04C276.99,53.13,277.54,53.68,277.54,54.35z"/>
	</g>
	<g class="st3">
		<path class="st26" d="M261.39,53.24L261.39,53.24c-0.49,0.45-1.26,0.43-1.71-0.07l-6.83-7.4c-0.45-0.49-0.42-1.27,0.07-1.72l0,0
			c0.49-0.45,1.26-0.43,1.71,0.07l6.83,7.4C261.91,52.01,261.88,52.79,261.39,53.24z"/>
		<path class="st26" d="M272.34,65.11L272.34,65.11c-0.49,0.45-1.26,0.43-1.71-0.07l-6.83-7.4c-0.45-0.49-0.42-1.27,0.07-1.72l0,0
			c0.49-0.45,1.26-0.43,1.71,0.07l6.83,7.4C272.86,63.88,272.83,64.66,272.34,65.11z"/>
	</g>
	<g class="st3">
		<path class="st26" d="M261.55,55.59L261.55,55.59c0.45,0.49,0.42,1.27-0.07,1.72l-7.37,6.85c-0.49,0.45-1.26,0.43-1.71-0.07h0
			c-0.45-0.49-0.42-1.27,0.07-1.72l7.37-6.85C260.33,55.07,261.1,55.1,261.55,55.59z"/>
		<path class="st26" d="M273.37,44.6L273.37,44.6c0.45,0.49,0.42,1.27-0.07,1.72l-7.37,6.85c-0.49,0.45-1.26,0.43-1.71-0.07l0,0
			c-0.45-0.49-0.42-1.27,0.07-1.72l7.37-6.85C272.15,44.08,272.92,44.11,273.37,44.6z"/>
	</g>
</g>
<g>
	<g>
		<g>
			<g>
				<path class="st27" d="M196.37,177.43c0,0-14.74,31.7-8.4,44.96c6.34,13.25,19.57,16.06,29.94,11.95s15.28-15.03,15.69-22.58
					c0.41-7.55-13.01-14.65-16.3-35L196.37,177.43z"/>
				<path class="st27" d="M222.93,161.51c0,0,34.94-0.34,44.2-11.74c9.26-11.4,6.13-24.51-2.01-32.09s-20.11-7.3-27.1-4.43
					c-7,2.87-9.5,14.46-26.47,26.16L222.93,161.51z"/>
				<path class="st27" d="M194.7,141.3c0,0-19.06-29.1-33.58-30.98c-14.51-1.88-23.81,7.51-25.77,18.25s4.7,20.62,10.86,25
					c6.16,4.38,19.21-0.51,38.12,7.68L194.7,141.3z"/>
				<path class="st28" d="M193.31,140.58c0,0-17.86-25.62-34.17-27.18s-18.64,8.54-18.64,12.42
					C140.5,129.71,172.34,118.84,193.31,140.58z"/>
				<path class="st28" d="M198.68,178.51c0,0-13.92,27.96-7.46,43.01c6.46,15.05,16.43,12.26,19.84,10.4
					C214.46,230.06,189.65,207.33,198.68,178.51z"/>
				<path class="st28" d="M222.51,158.52c0,0,31.23,0.38,41.98-11.98c10.75-12.36,3.89-20.13,0.73-22.39
					S252.39,154.11,222.51,158.52z"/>
			</g>
			<g>
				<circle class="st29" cx="203.16" cy="160.06" r="92.55"/>
				<path class="st30" d="M207.59,164.29h-3.02c-2.16,0-3.9-1.75-3.9-3.9V72.96c0-2.16,1.75-3.9,3.9-3.9h3.02
					c2.16,0,3.9,1.75,3.9,3.9v87.42C211.5,162.54,209.75,164.29,207.59,164.29z"/>
				<path class="st30" d="M204.64,159.04l3.05-4.78c1.16-1.82,3.57-2.35,5.39-1.19l73.71,46.99c1.82,1.16,2.35,3.57,1.19,5.39
					l-3.05,4.78c-1.16,1.82-3.57,2.35-5.39,1.19l-73.71-46.99C204.02,163.27,203.48,160.86,204.64,159.04z"/>
				<path class="st30" d="M205.83,165.35l-2.39-4.13c-1.08-1.87-3.47-2.51-5.33-1.43L122.4,203.5c-1.87,1.08-2.51,3.47-1.43,5.33
					l2.39,4.13c1.08,1.87,3.47,2.51,5.33,1.43l75.71-43.71C206.26,169.6,206.9,167.21,205.83,165.35z"/>
				<circle class="st31" cx="204.7" cy="159.29" r="26.88"/>
				<circle class="st30" cx="204.7" cy="159.29" r="21.3"/>
				<circle class="st32" cx="204.7" cy="159.29" r="13.47"/>
			</g>
		</g>
		<rect x="181.55" y="252.61" class="st30" width="42.52" height="13.34"/>
		<path class="st30" d="M204.48,260.94c-49.13,0-105.06,47.04-105.06,105.06h210.11C309.54,307.98,262.5,260.94,204.48,260.94z"/>
		<g>
			<g>
				<circle class="st33" cx="204.41" cy="291.38" r="18.76"/>
			</g>
			<g>
				<g>
					<path class="st34" d="M209.89,282.9c2.89,1.81,4.81,5.02,4.81,8.68c0,5.64-4.58,10.22-10.22,10.22s-10.22-4.58-10.22-10.22
						c0-3.93,2.22-7.35,5.48-9.06"/>
				</g>
				<path class="st35" d="M204.59,296.92h-0.22c-0.49,0-0.89-0.4-0.89-0.89v-17.41c0-0.49,0.4-0.89,0.89-0.89h0.22
					c0.49,0,0.89,0.4,0.89,0.89v17.41C205.48,296.52,205.08,296.92,204.59,296.92z"/>
			</g>
		</g>
		<path class="st33" d="M155.35,288.46c0,0-34.28,23.86-49.74,77.19h26.7C132.31,365.65,107.56,331.86,155.35,288.46z"/>
		<path class="st33" d="M259.02,282.62c0,0,30.82,28.19,46.69,82.95H278.3C278.3,365.57,308.09,327.19,259.02,282.62z"/>
		<path class="st36" d="M118.12,147.55c-1.64,0.95-13.39,7.53-14.17,15.83c0,0,5.82,14.18,16.65,20.86
			C120.6,184.25,113.93,163.39,118.12,147.55z"/>
		<path class="st36" d="M127.95,199.05c-0.85,1.7-7.07,13.64-3.17,21.01c0,0,12.64,8.67,25.36,8.32
			C150.14,228.38,133.13,214.59,127.95,199.05z"/>
		<path class="st36" d="M162.96,235.77c0.33,1.87,2.43,15.17,9.94,18.78c0,0,15.32-0.55,25.34-8.4
			C198.25,246.16,176.37,245.18,162.96,235.77z"/>
		<path class="st36" d="M218.93,244.44c1.42,1.26,11.33,10.38,19.46,8.53c0,0,11.66-9.95,14.63-22.33
			C253.02,230.64,235.28,243.48,218.93,244.44z"/>
		<path class="st36" d="M266.11,219.1c1.89,0.18,15.27,1.67,20.74-4.63c0,0,3.52-14.92-1.4-26.66
			C285.45,187.81,278.73,208.65,266.11,219.1z"/>
		<path class="st36" d="M288.86,168.58c1.61-1.01,13.12-8,13.6-16.33c0,0-6.32-13.97-17.38-20.26
			C285.08,132,292.48,152.61,288.86,168.58z"/>
		<path class="st36" d="M278.14,118.38c0.79-1.73,6.62-13.86,2.49-21.1c0,0-12.92-8.25-25.62-7.49
			C255,89.79,272.45,103.02,278.14,118.38z"/>
		<path class="st36" d="M240.45,82.93c-0.4-1.86-2.99-15.07-10.63-18.4c0,0-15.29,1.12-25.01,9.33
			C204.8,73.86,226.7,74.02,240.45,82.93z"/>
		<path class="st36" d="M184.01,76.21c-1.49-1.18-11.92-9.69-19.93-7.37c0,0-11.05,10.62-13.29,23.15
			C150.79,91.99,167.74,78.13,184.01,76.21z"/>
		<path class="st36" d="M139.15,102.39c-1.89-0.14-15.3-1.38-20.65,5.02c0,0-3.23,14.98,1.91,26.63
			C120.41,134.03,126.73,113.07,139.15,102.39z"/>
		<path class="st37" d="M183.06,347.66h-0.65c-1.43,0-2.59-1.17-2.59-2.59v-12.45c0-1.43,1.17-2.59,2.59-2.59h0.65
			c1.43,0,2.59,1.17,2.59,2.59v12.45C185.65,346.49,184.48,347.66,183.06,347.66z"/>
		<path class="st35" d="M185.19,346.12h-0.74c-1.63,0-2.97-1.33-2.97-2.97v-11.71c0-1.63,1.33-2.97,2.97-2.97h0.74
			c1.63,0,2.97,1.33,2.97,2.97v11.71C188.15,344.79,186.82,346.12,185.19,346.12z"/>
		<path class="st37" d="M203.07,347.66h-0.65c-1.43,0-2.59-1.17-2.59-2.59v-12.45c0-1.43,1.17-2.59,2.59-2.59h0.65
			c1.43,0,2.59,1.17,2.59,2.59v12.45C205.66,346.49,204.49,347.66,203.07,347.66z"/>
		<path class="st35" d="M205.2,346.12h-0.74c-1.63,0-2.97-1.33-2.97-2.97v-11.71c0-1.63,1.33-2.97,2.97-2.97h0.74
			c1.63,0,2.97,1.33,2.97,2.97v11.71C208.16,344.79,206.83,346.12,205.2,346.12z"/>
		<path class="st37" d="M222.24,347.66h-0.65c-1.43,0-2.59-1.17-2.59-2.59v-12.45c0-1.43,1.17-2.59,2.59-2.59h0.65
			c1.43,0,2.59,1.17,2.59,2.59v12.45C224.84,346.49,223.67,347.66,222.24,347.66z"/>
		<path class="st35" d="M224.37,346.12h-0.74c-1.63,0-2.97-1.33-2.97-2.97v-11.71c0-1.63,1.33-2.97,2.97-2.97h0.74
			c1.63,0,2.97,1.33,2.97,2.97v11.71C227.34,344.79,226.01,346.12,224.37,346.12z"/>
	</g>
	<g>
		
			<ellipse transform="matrix(0.9814 -0.1919 0.1919 0.9814 -40.8516 18.2006)" class="st38" cx="73.52" cy="219.97" rx="1.86" ry="6.05"/>
		
			<ellipse transform="matrix(0.7071 -0.7071 0.7071 0.7071 -131.6009 118.5066)" class="st38" cx="77.25" cy="218.11" rx="1.86" ry="6.05"/>
		
			<ellipse transform="matrix(0.1131 -0.9936 0.9936 0.1131 -142.0181 269.6635)" class="st38" cx="80.04" cy="214.38" rx="1.86" ry="6.05"/>
		
			<ellipse transform="matrix(0.8258 -0.5639 0.5639 0.8258 -104.6336 81.1398)" class="st38" cx="79.04" cy="209.96" rx="6.05" ry="1.86"/>
		
			<ellipse transform="matrix(0.1852 -0.9827 0.9827 0.1852 -142.5742 242.3787)" class="st38" cx="74.88" cy="207.17" rx="6.05" ry="1.86"/>
		
			<ellipse transform="matrix(0.8843 -0.4669 0.4669 0.8843 -88.5008 56.7258)" class="st38" cx="70.22" cy="206.96" rx="1.86" ry="6.05"/>
		
			<ellipse transform="matrix(0.4658 -0.8849 0.8849 0.4658 -149.8526 172.3038)" class="st38" cx="67.78" cy="210.26" rx="1.86" ry="6.05"/>
		
			<ellipse transform="matrix(0.9551 -0.2964 0.2964 0.9551 -60.7702 29.6025)" class="st38" cx="67.26" cy="215.25" rx="6.05" ry="1.86"/>
		
			<ellipse transform="matrix(0.5629 -0.8265 0.8265 0.5629 -151.1191 153.1685)" class="st38" cx="69.25" cy="219.46" rx="6.05" ry="1.86"/>
		<circle class="st39" cx="73.52" cy="213.92" r="2.79"/>
	</g>
	<g>
		
			<ellipse transform="matrix(0.9814 -0.1919 0.1919 0.9814 -4.2802 52.8192)" class="st38" cx="270.51" cy="48.5" rx="1.64" ry="5.32"/>
		
			<ellipse transform="matrix(0.7071 -0.7071 0.7071 0.7071 47.051 207.321)" class="st38" cx="273.78" cy="46.86" rx="1.64" ry="5.32"/>
		
			<ellipse transform="matrix(0.1131 -0.9936 0.9936 0.1131 201.6855 313.1263)" class="st38" cx="276.24" cy="43.59" rx="1.64" ry="5.32"/>
		
			<ellipse transform="matrix(0.8258 -0.5639 0.5639 0.8258 25.57 162.1919)" class="st38" cx="275.36" cy="39.7" rx="5.32" ry="1.64"/>
		
			<ellipse transform="matrix(0.1852 -0.9827 0.9827 0.1852 184.7783 297.3405)" class="st38" cx="271.7" cy="37.24" rx="5.32" ry="1.64"/>
		
			<ellipse transform="matrix(0.8843 -0.4669 0.4669 0.8843 13.6531 129.2243)" class="st38" cx="267.61" cy="37.06" rx="1.64" ry="5.32"/>
		
			<ellipse transform="matrix(0.4658 -0.8849 0.8849 0.4658 106.4462 256.2506)" class="st38" cx="265.46" cy="39.96" rx="1.64" ry="5.32"/>
		
			<ellipse transform="matrix(0.9551 -0.2964 0.2964 0.9551 -1.2395 80.5266)" class="st38" cx="265" cy="44.35" rx="5.32" ry="1.64"/>
		
			<ellipse transform="matrix(0.5629 -0.8265 0.8265 0.5629 76.8824 241.4832)" class="st38" cx="266.75" cy="48.05" rx="5.32" ry="1.64"/>
		<circle class="st39" cx="270.51" cy="43.18" r="2.46"/>
	</g>
	<g>
		
			<ellipse transform="matrix(0.9814 -0.1919 0.1919 0.9814 -16.7173 16.6354)" class="st40" cx="77.51" cy="94.61" rx="1.45" ry="4.71"/>
		
			<ellipse transform="matrix(0.7071 -0.7071 0.7071 0.7071 -42.3238 84.1447)" class="st40" cx="80.41" cy="93.16" rx="1.45" ry="4.71"/>
		
			<ellipse transform="matrix(0.1131 -0.9936 0.9936 0.1131 -16.4426 162.1065)" class="st40" cx="82.58" cy="90.26" rx="1.45" ry="4.71"/>
		
			<ellipse transform="matrix(0.8258 -0.5639 0.5639 0.8258 -34.7141 61.2513)" class="st40" cx="81.8" cy="86.82" rx="4.71" ry="1.45"/>
		
			<ellipse transform="matrix(0.1852 -0.9827 0.9827 0.1852 -19.1727 146.1768)" class="st40" cx="78.56" cy="84.65" rx="4.71" ry="1.45"/>
		
			<ellipse transform="matrix(0.8843 -0.4669 0.4669 0.8843 -30.7765 44.763)" class="st40" cx="74.95" cy="84.49" rx="1.45" ry="4.71"/>
		
			<ellipse transform="matrix(0.4658 -0.8849 0.8849 0.4658 -38.0169 111.144)" class="st40" cx="73.04" cy="87.06" rx="1.45" ry="4.71"/>
		
			<ellipse transform="matrix(0.9551 -0.2964 0.2964 0.9551 -23.6874 25.6122)" class="st40" cx="72.64" cy="90.94" rx="4.71" ry="1.45"/>
		
			<ellipse transform="matrix(0.5629 -0.8265 0.8265 0.5629 -45.4401 102.5017)" class="st40" cx="74.19" cy="94.21" rx="4.71" ry="1.45"/>
		<circle class="st41" cx="77.51" cy="89.34" r="2.17"/>
	</g>
	<g>
		
			<ellipse transform="matrix(0.7981 -0.6025 0.6025 0.7981 -122.9187 235.3422)" class="st40" cx="289.69" cy="301.07" rx="3.54" ry="11.5"/>
		
			<ellipse transform="matrix(0.3258 -0.9454 0.9454 0.3258 -80.1565 477.1875)" class="st40" cx="294.5" cy="294.79" rx="3.54" ry="11.5"/>
		
			<ellipse transform="matrix(0.9427 -0.3337 0.3337 0.9427 -78.4953 115.2229)" class="st40" cx="296.17" cy="286.11" rx="11.5" ry="3.54"/>
		
			<ellipse transform="matrix(0.4952 -0.8688 0.8688 0.4952 -95.9587 393.6397)" class="st40" cx="290.78" cy="279.4" rx="11.5" ry="3.54"/>
		
			<ellipse transform="matrix(0.9645 -0.2641 0.2641 0.9645 -63.4567 84.1785)" class="st40" cx="281.34" cy="278.09" rx="3.54" ry="11.5"/>
		
			<ellipse transform="matrix(0.5903 -0.8072 0.8072 0.5903 -115.3725 335.9029)" class="st40" cx="273.23" cy="281.61" rx="3.54" ry="11.5"/>
		
			<ellipse transform="matrix(0.0309 -0.9995 0.9995 0.0309 -25.7505 552.0025)" class="st40" cx="271.8" cy="289.28" rx="3.54" ry="11.5"/>
		
			<ellipse transform="matrix(0.7287 -0.6849 0.6849 0.7287 -129.6139 269.312)" class="st40" cx="275.07" cy="298.23" rx="11.5" ry="3.54"/>
		
			<ellipse transform="matrix(0.1438 -0.9896 0.9896 0.1438 -59.1728 539.1098)" class="st40" cx="281.97" cy="303.75" rx="11.5" ry="3.54"/>
		<circle class="st41" cx="284.05" cy="289.5" r="5.31"/>
	</g>
	<g>
		
			<ellipse transform="matrix(0.5103 -0.86 0.86 0.5103 36.3259 368.4003)" class="st40" cx="341.63" cy="152.31" rx="1.04" ry="3.38"/>
		
			<ellipse transform="matrix(0.9984 -0.0568 0.0568 0.9984 -7.9664 19.6694)" class="st40" cx="342.24" cy="150.06" rx="3.38" ry="1.04"/>
		
			<ellipse transform="matrix(0.746 -0.666 0.666 0.746 -11.4263 265.0632)" class="st40" cx="341.72" cy="147.51" rx="3.38" ry="1.04"/>
		
			<ellipse transform="matrix(0.1291 -0.9916 0.9916 0.1291 150.6105 464.0594)" class="st40" cx="339.51" cy="146.28" rx="3.38" ry="1.04"/>
		
			<ellipse transform="matrix(0.7925 -0.6099 0.6099 0.7925 -19.7524 235.9023)" class="st40" cx="336.79" cy="146.98" rx="1.04" ry="3.38"/>
		
			<ellipse transform="matrix(0.2405 -0.9707 0.9707 0.2405 109.9523 438.1974)" class="st40" cx="334.98" cy="148.84" rx="1.04" ry="3.38"/>
		
			<ellipse transform="matrix(0.9367 -0.3501 0.3501 0.9367 -31.6662 126.9999)" class="st40" cx="335.45" cy="151.09" rx="3.38" ry="1.04"/>
		
			<ellipse transform="matrix(0.4148 -0.9099 0.9099 0.4148 58.0431 396.5708)" class="st40" cx="337.33" cy="153.16" rx="3.38" ry="1.04"/>
		
			<ellipse transform="matrix(0.9703 -0.2419 0.2419 0.9703 -27.1338 86.771)" class="st40" cx="339.83" cy="153.89" rx="1.04" ry="3.38"/>
		<circle class="st41" cx="338.8" cy="149.78" r="1.56"/>
	</g>
	<g>
		<path class="st42" d="M357.65,204.16c0,0,6.64,16.79-7.87,31.14C349.78,235.3,342.33,217.63,357.65,204.16z"/>
		<path class="st43" d="M357.1,206.33c0,0,6.17,15.61-7.32,28.97C349.78,235.3,342.85,218.87,357.1,206.33z"/>
	</g>
	<g>
		<path class="st42" d="M347.42,49.81c0,0,2.24,21.44-14.24,28.79C333.19,78.6,330.4,55.77,347.42,49.81z"/>
		<path class="st43" d="M346.43,51.82c0,0,2.09,19.95-13.24,26.78C333.19,78.6,330.59,57.37,346.43,51.82z"/>
	</g>
	<g>
		<path class="st42" d="M125.5,322.41c0,0-13.2,6.51-25.83-4.32C99.67,318.09,113.52,310.86,125.5,322.41z"/>
		<path class="st43" d="M123.7,322.11c0,0-12.28,6.06-24.03-4.01C99.67,318.09,112.56,311.36,123.7,322.11z"/>
	</g>
</g>
</svg>
