<?xml version="1.0" encoding="utf-8"?>
<!-- Generator: Adobe Illustrator 23.0.0, SVG Export Plug-In . SVG Version: 6.00 Build 0)  -->
<svg version="1.0" id="图层_1" xmlns="http://www.w3.org/2000/svg" xmlns:xlink="http://www.w3.org/1999/xlink" x="0px" y="0px"
	 viewBox="0 0 400 400" style="enable-background:new 0 0 400 400;" xml:space="preserve">
<style type="text/css">
	.st0{fill:none;stroke:#000000;stroke-width:12;stroke-miterlimit:10;}
	.st1{fill:#FCE438;stroke:#000000;stroke-width:6;stroke-miterlimit:10;}
	.st2{fill:#F9D43A;}
	.st3{fill:#F7CA3C;}
	.st4{fill:#161515;}
	.st5{fill:none;stroke:#FFFFFF;stroke-width:6;stroke-linecap:round;stroke-miterlimit:10;}
	.st6{fill:#00D16C;}
	.st7{fill:none;stroke:#F28033;stroke-width:3;stroke-miterlimit:10;}
	.st8{fill:none;stroke:#211C1C;stroke-width:8;stroke-linecap:round;stroke-miterlimit:10;}
	.st9{fill:none;stroke:#756D7A;stroke-width:8;stroke-linecap:round;stroke-miterlimit:10;}
	.st10{fill:none;stroke:#D3D3D3;stroke-width:8;stroke-linecap:round;stroke-miterlimit:10;}
	.st11{fill:none;stroke:#008486;stroke-width:3;stroke-miterlimit:10;}
	.st12{fill:#F7ED3C;}
	.st13{fill:#7C5543;}
	.st14{fill:#F78631;}
	.st15{fill:#90EB7A;}
	.st16{fill:#BAB3B1;}
	.st17{fill:#00AD95;}
	.st18{font-family:'FZCHAOZYTS--GB1-0';}
	.st19{font-size:12.3947px;}
</style>
<g>
	<g>
		<path d="M322.13,151.89h-9.87c-2.37,0-4.32-1.94-4.32-4.32l0,0c0-2.37,1.94-4.32,4.32-4.32h9.87c2.37,0,4.32,1.94,4.32,4.32l0,0
			C326.44,149.95,324.5,151.89,322.13,151.89z"/>
		<path d="M90.89,151.89h-9.87c-2.37,0-4.32-1.94-4.32-4.32l0,0c0-2.37,1.94-4.32,4.32-4.32h9.87c2.37,0,4.32,1.94,4.32,4.32l0,0
			C95.2,149.95,93.26,151.89,90.89,151.89z"/>
		<path d="M98.29,190.12c0,0-19.73,17.88-26.52,22.2c-6.78,4.32,1.23,13.57,9.25,12.95c8.02,0,11.1-24.05,22.2-27.75
			S98.29,190.12,98.29,190.12z"/>
		<path d="M301.91,190.12c0,0,19.73,17.88,26.52,22.2c6.78,4.32-1.23,13.57-9.25,12.95c-8.02,0-11.1-24.05-22.2-27.75
			C285.88,193.82,301.91,190.12,301.91,190.12z"/>
		<g>
			<path class="st0" d="M269.59,174.72c-65.76-37.48-134.11-2.64-134.11-2.64"/>
			<g>
				<polygon class="st1" points="137.43,117.51 113.48,123.41 95.01,139.77 86.26,162.84 89.24,187.33 103.25,207.64 125.1,219.1 
					149.77,219.1 171.61,207.64 185.63,187.33 188.6,162.84 179.85,139.77 161.39,123.41 				"/>
				<polyline class="st2" points="104.82,205.33 137.36,167.61 125.53,216.42 104.82,205.33 				"/>
				<polyline class="st3" points="148.69,216.67 136.12,168.47 169.58,205.92 148.69,216.67 				"/>
				<polyline class="st2" points="183.05,186.05 136.07,169.49 185.83,162.72 183.05,186.05 				"/>
				<polyline class="st2" points="177.69,141.37 137.39,170.64 160.06,125.83 177.69,141.37 				"/>
				<polyline class="st3" points="137.36,120.28 138.04,170.09 114.51,125.72 137.36,120.28 				"/>
				<polyline class="st2" points="97.14,141.55 138.99,168.58 89.01,163.59 97.14,141.55 				"/>
				<circle cx="137.43" cy="168.31" r="38.38"/>
				<circle class="st4" cx="133.57" cy="165.15" r="34.52"/>
			</g>
			<g>
				<polygon class="st1" points="266.11,117.51 242.16,123.41 223.69,139.77 214.94,162.84 217.92,187.33 231.93,207.64 
					253.78,219.1 278.45,219.1 300.29,207.64 314.31,187.33 317.28,162.84 308.53,139.77 290.07,123.41 				"/>
				<polyline class="st2" points="233.5,205.33 266.04,167.61 254.2,216.42 233.5,205.33 				"/>
				<polyline class="st3" points="277.37,216.67 264.8,168.47 298.26,205.92 277.37,216.67 				"/>
				<polyline class="st2" points="311.73,186.05 264.74,169.49 314.51,162.72 311.73,186.05 				"/>
				<polyline class="st2" points="306.37,141.37 266.07,170.64 288.74,125.83 306.37,141.37 				"/>
				<polyline class="st3" points="266.04,120.28 266.71,170.09 243.18,125.72 266.04,120.28 				"/>
				<polyline class="st2" points="225.82,141.55 267.66,168.58 217.69,163.59 225.82,141.55 				"/>
				<circle cx="266.11" cy="168.31" r="39.12"/>
				<circle class="st4" cx="262.18" cy="165.08" r="35.19"/>
			</g>
		</g>
		<path class="st5" d="M129.35,139.79c0,0-13.66,0.39-20.69,19.13"/>
		<path class="st5" d="M257.12,139.79c0,0-13.66,0.39-20.69,19.13"/>
	</g>
	<g>
		<g>
			<g>
				<path class="st6" d="M313.51,95.28l-0.11-0.17c-0.25-0.38-0.15-0.89,0.23-1.15l4.59-3.08c0.38-0.25,0.89-0.15,1.15,0.23
					l0.11,0.17c0.25,0.38,0.15,0.89-0.23,1.15l-4.59,3.08C314.28,95.76,313.76,95.66,313.51,95.28z"/>
				<path class="st6" d="M304.11,101.47l-0.11-0.17c-0.25-0.38-0.15-0.89,0.23-1.15l4.59-3.08c0.38-0.25,0.89-0.15,1.15,0.23
					l0.11,0.17c0.25,0.38,0.15,0.89-0.23,1.15l-4.59,3.08C304.88,101.95,304.36,101.84,304.11,101.47z"/>
				<path class="st6" d="M310.86,95.15l-0.17,0.11c-0.38,0.25-0.89,0.15-1.15-0.23l-3.08-4.59c-0.25-0.38-0.15-0.89,0.23-1.15
					l0.17-0.11c0.38-0.25,0.89-0.15,1.15,0.23l3.08,4.59C311.34,94.38,311.23,94.9,310.86,95.15z"/>
				<path class="st6" d="M317.04,104.56l-0.17,0.11c-0.38,0.25-0.89,0.15-1.15-0.23l-3.08-4.59c-0.25-0.38-0.15-0.89,0.23-1.15
					l0.17-0.11c0.38-0.25,0.89-0.15,1.15,0.23l3.08,4.59C317.52,103.79,317.42,104.3,317.04,104.56z"/>
			</g>
		</g>
		<g>
			<g>
				<path class="st6" d="M312.22,93.83l-0.47-0.13c-0.44-0.12-0.7-0.57-0.58-1.01l1.71-6.37c0.12-0.44,0.57-0.7,1.01-0.58l0.47,0.13
					c0.44,0.12,0.7,0.57,0.58,1.01l-1.71,6.37C313.12,93.68,312.66,93.94,312.22,93.83z"/>
				<path class="st6" d="M308.75,106.28l-0.47-0.13c-0.44-0.12-0.7-0.57-0.58-1.01l1.71-6.37c0.12-0.44,0.57-0.7,1.01-0.58
					l0.47,0.13c0.44,0.12,0.7,0.57,0.58,1.01l-1.71,6.37C309.65,106.14,309.19,106.4,308.75,106.28z"/>
				<path class="st6" d="M309.74,95.57l-0.13,0.47c-0.12,0.44-0.57,0.7-1.01,0.58l-6.37-1.71c-0.44-0.12-0.7-0.57-0.58-1.01
					l0.13-0.47c0.12-0.44,0.57-0.7,1.01-0.58l6.37,1.71C309.59,94.67,309.86,95.13,309.74,95.57z"/>
				<path class="st6" d="M322.2,99.04l-0.13,0.47c-0.12,0.44-0.57,0.7-1.01,0.58l-6.37-1.71c-0.44-0.12-0.7-0.57-0.58-1.01
					l0.13-0.47c0.12-0.44,0.57-0.7,1.01-0.58l6.37,1.71C322.05,98.14,322.31,98.6,322.2,99.04z"/>
			</g>
		</g>
	</g>
	<circle class="st7" cx="338.88" cy="186.47" r="5.18"/>
	<line class="st8" x1="88.3" y1="258.58" x2="289.82" y2="258.58"/>
	<line class="st8" x1="302.74" y1="258.58" x2="357" y2="258.58"/>
	<line class="st8" x1="50.83" y1="258.58" x2="70.21" y2="258.58"/>
	<line class="st9" x1="139.72" y1="286.68" x2="261.09" y2="286.68"/>
	<line class="st9" x1="274.95" y1="286.68" x2="321.5" y2="286.68"/>
	<line class="st9" x1="82.63" y1="286.68" x2="128.63" y2="286.68"/>
	<line class="st10" x1="134.74" y1="317" x2="245.03" y2="317"/>
	<line class="st10" x1="254.7" y1="317" x2="301.26" y2="317"/>
	<line class="st10" x1="104.99" y1="317" x2="124.39" y2="317"/>
	<path class="st10" d="M133.07,317"/>
	<path class="st10" d="M122.54,317"/>
	<circle class="st11" cx="349.79" cy="109.38" r="3.88"/>
	<circle class="st12" cx="330.75" cy="132.49" r="3.33"/>
	<circle class="st13" cx="353.67" cy="162.81" r="1.85"/>
	<g>
		<g>
			<g>
				<path class="st14" d="M66.69,171.25L66.69,171.25c-0.47-0.29-0.62-0.91-0.33-1.38l2.98-4.88c0.29-0.47,0.91-0.62,1.38-0.33l0,0
					c0.47,0.29,0.62,0.91,0.33,1.38l-2.98,4.88C67.78,171.39,67.16,171.54,66.69,171.25z"/>
				<path class="st14" d="M60.3,181.52L60.3,181.52c-0.47-0.29-0.62-0.91-0.33-1.38l2.98-4.88c0.29-0.47,0.91-0.62,1.38-0.33l0,0
					c0.47,0.29,0.62,0.91,0.33,1.38l-2.98,4.88C61.39,181.66,60.77,181.81,60.3,181.52z"/>
				<path class="st14" d="M64.08,172.47L64.08,172.47c-0.29,0.47-0.91,0.62-1.38,0.33l-4.88-2.98c-0.47-0.29-0.62-0.91-0.33-1.38
					l0,0c0.29-0.47,0.91-0.62,1.38-0.33l4.88,2.98C64.22,171.38,64.37,172,64.08,172.47z"/>
				<path class="st14" d="M74.35,178.86L74.35,178.86c-0.29,0.47-0.91,0.62-1.38,0.33l-4.88-2.98c-0.47-0.29-0.62-0.91-0.33-1.38
					l0,0c0.29-0.47,0.91-0.62,1.38-0.33l4.88,2.98C74.49,177.77,74.64,178.39,74.35,178.86z"/>
			</g>
			<circle class="st7" cx="91.14" cy="101.43" r="5.18"/>
			<circle class="st15" cx="56.93" cy="136" r="3.88"/>
			<circle class="st12" cx="42.33" cy="199.78" r="3.33"/>
			<circle class="st16" cx="42.33" cy="153.93" r="1.85"/>
		</g>
		<g>
			<text transform="matrix(1 0 0 1 39.1426 119.4453)" class="st17 st18 st19">+</text>
		</g>
	</g>
</g>
</svg>
