<?xml version="1.0" encoding="UTF-8"?>
<svg width="736px" height="605px" viewBox="0 0 736 605" version="1.1" xmlns="http://www.w3.org/2000/svg" xmlns:xlink="http://www.w3.org/1999/xlink">
    <title>组合示例/功能区块示例/电脑组合02</title>
    <defs>
        <linearGradient x1="34.2790825%" y1="27.8692098%" x2="50%" y2="72.4607852%" id="linearGradient-1">
            <stop stop-color="#87A7FD" offset="0%"></stop>
            <stop stop-color="#506EFA" offset="100%"></stop>
        </linearGradient>
        <linearGradient x1="46.0519506%" y1="88.7527881%" x2="35.4978295%" y2="13.6656813%" id="linearGradient-2">
            <stop stop-color="#6688E6" offset="0%"></stop>
            <stop stop-color="#3650C8" offset="100%"></stop>
        </linearGradient>
        <linearGradient x1="50%" y1="84.0591523%" x2="50%" y2="12.7399407%" id="linearGradient-3">
            <stop stop-color="#F0F3FD" offset="0%"></stop>
            <stop stop-color="#DFE4EE" offset="100%"></stop>
        </linearGradient>
        <linearGradient x1="50%" y1="0%" x2="50%" y2="100%" id="linearGradient-4">
            <stop stop-color="#DAE3F4" offset="0%"></stop>
            <stop stop-color="#F6F9FF" offset="100%"></stop>
        </linearGradient>
        <linearGradient x1="19.0164379%" y1="13.3399566%" x2="88.7637619%" y2="79.6437172%" id="linearGradient-5">
            <stop stop-color="#FFBDBD" offset="0%"></stop>
            <stop stop-color="#FF7A7A" offset="100%"></stop>
        </linearGradient>
        <circle id="path-6" cx="60" cy="60" r="60"></circle>
        <filter x="-57.5%" y="-42.5%" width="215.0%" height="215.0%" filterUnits="objectBoundingBox" id="filter-7">
            <feOffset dx="0" dy="18" in="SourceAlpha" result="shadowOffsetOuter1"></feOffset>
            <feGaussianBlur stdDeviation="20" in="shadowOffsetOuter1" result="shadowBlurOuter1"></feGaussianBlur>
            <feColorMatrix values="0 0 0 0 1   0 0 0 0 0.737254902   0 0 0 0 0.737254902  0 0 0 0.504112831 0" type="matrix" in="shadowBlurOuter1"></feColorMatrix>
        </filter>
        <linearGradient x1="12.9905368%" y1="9.62348111%" x2="72.7688406%" y2="67.9479751%" id="linearGradient-8">
            <stop stop-color="#87A7FD" offset="0%"></stop>
            <stop stop-color="#3C72F2" offset="100%"></stop>
        </linearGradient>
        <circle id="path-9" cx="60" cy="60" r="60"></circle>
        <filter x="-57.5%" y="-42.5%" width="215.0%" height="215.0%" filterUnits="objectBoundingBox" id="filter-10">
            <feOffset dx="0" dy="18" in="SourceAlpha" result="shadowOffsetOuter1"></feOffset>
            <feGaussianBlur stdDeviation="20" in="shadowOffsetOuter1" result="shadowBlurOuter1"></feGaussianBlur>
            <feColorMatrix values="0 0 0 0 0.337254902   0 0 0 0 0.517647059   0 0 0 0 0.964705882  0 0 0 0.401496941 0" type="matrix" in="shadowBlurOuter1"></feColorMatrix>
        </filter>
        <linearGradient x1="94.6594577%" y1="36.4617468%" x2="0%" y2="36.4617468%" id="linearGradient-11">
            <stop stop-color="#97AEFF" offset="0%"></stop>
            <stop stop-color="#5F7BFF" offset="100%"></stop>
        </linearGradient>
        <circle id="path-12" cx="15" cy="15" r="15"></circle>
        <filter x="-116.7%" y="-83.3%" width="333.3%" height="333.3%" filterUnits="objectBoundingBox" id="filter-13">
            <feOffset dx="0" dy="10" in="SourceAlpha" result="shadowOffsetOuter1"></feOffset>
            <feGaussianBlur stdDeviation="10" in="shadowOffsetOuter1" result="shadowBlurOuter1"></feGaussianBlur>
            <feColorMatrix values="0 0 0 0 0.231372549   0 0 0 0 0.525490196   0 0 0 0 0.960784314  0 0 0 0.35661604 0" type="matrix" in="shadowBlurOuter1"></feColorMatrix>
        </filter>
        <circle id="path-14" cx="15" cy="15" r="15"></circle>
        <filter x="-116.7%" y="-83.3%" width="333.3%" height="333.3%" filterUnits="objectBoundingBox" id="filter-15">
            <feOffset dx="0" dy="10" in="SourceAlpha" result="shadowOffsetOuter1"></feOffset>
            <feGaussianBlur stdDeviation="10" in="shadowOffsetOuter1" result="shadowBlurOuter1"></feGaussianBlur>
            <feColorMatrix values="0 0 0 0 0.231372549   0 0 0 0 0.525490196   0 0 0 0 0.960784314  0 0 0 0.35661604 0" type="matrix" in="shadowBlurOuter1"></feColorMatrix>
        </filter>
    </defs>
    <g id="插画" stroke="none" stroke-width="1" fill="none" fill-rule="evenodd">
        <g id="组合示例/功能区块示例" transform="translate(-1541.000000, -2641.000000)">
            <g id="组合示例/功能区块示例/电脑组合/02" transform="translate(1400.000000, 2436.000000)">
                <rect id="背景-" x="0" y="0" width="1000" height="1000"></rect>
                <g id="主图" transform="translate(158.000000, 205.000000)">
                    <g id="编组-5备份" transform="translate(0.000000, 8.000000)">
                        <circle id="椭圆形" fill="#F6F7FC" cx="354.5" cy="298.5" r="298.5"></circle>
                        <ellipse id="椭圆形备份-3" fill="#EEF1FF" cx="48" cy="133.5" rx="11" ry="11.5"></ellipse>
                        <ellipse id="椭圆形备份-5" fill="#EEF1FF" cx="686.5" cy="221" rx="14.5" ry="14"></ellipse>
                        <circle id="椭圆形备份-4" fill="#EEF1FF" cx="88.5" cy="86.5" r="8.5"></circle>
                        <circle id="椭圆形备份-6" fill="#EEF1FF" cx="614.5" cy="41.5" r="8.5"></circle>
                        <ellipse id="椭圆形" fill="#A9CEE9" cx="27.5" cy="360" rx="9.5" ry="9"></ellipse>
                        <circle id="椭圆形备份-2" fill="#F9C262" cx="510" cy="10" r="10"></circle>
                        <ellipse id="椭圆形备份" fill="#9DB3EC" cx="8.5" cy="235" rx="8.5" ry="8"></ellipse>
                    </g>
                    <g id="飞机备份" transform="translate(115.000000, 0.000000)">
                        <polygon id="路径-5" fill="url(#linearGradient-1)" points="0 0 88 25.5432152 63.5387875 40.3763501 24.2756963 17.5436481 53.2205352 49.5090442 28.2263244 67"></polygon>
                        <polygon id="路径-7" fill="#3650C8" points="24 17 60.9929807 70 62 47.2437287"></polygon>
                        <polygon id="路径-6" fill="#1D34A1" points="24 17 64 39.9570602 62.4807142 47"></polygon>
                        <path d="M67.1458757,64 C76.1669412,85.5084617 75.2036433,98.1253771 64.2559821,101.850746 C47.8344902,107.4388 37.4504361,88.3784904 55.467628,82.5525403 C73.48482,76.7265901 69.5262215,117.995604 107,115.924488" id="路径-9" stroke="url(#linearGradient-2)" stroke-width="2" stroke-linecap="round" stroke-dasharray="5" transform="translate(76.500000, 90.000000) rotate(-16.000000) translate(-76.500000, -90.000000) "></path>
                    </g>
                    <g id="编组" transform="translate(75.000000, 120.000000)">
                        <path d="M348.600241,438.129053 L336.810861,433.162037 L328.723393,374.026889 L221.024214,374.026889 L212.258005,432.92044 L201.710541,438.197201 C200.671571,438.717018 200.12614,439.8834 200.39305,441.0146 C200.659961,442.145801 201.66916,442.9449 202.830775,442.9449 L347.62859,442.9449 C348.820828,442.9449 349.847864,442.104139 350.083794,440.934789 C350.319723,439.765439 349.699138,438.591772 348.600241,438.129053 Z" id="路径" fill="url(#linearGradient-3)" fill-rule="nonzero"></path>
                        <path d="M539.989057,381.894561 L10.940824,381.894561 C5.16129964,381.881571 0.482892522,377.18995 0.482892522,371.407004 L0.482892522,296.760268 L550.44698,296.760268 L550.44698,371.406996 C550.44698,377.18992 545.768559,381.881514 539.989057,381.894561 L539.989057,381.894561 Z" id="路径" fill="url(#linearGradient-4)" fill-rule="nonzero"></path>
                        <path d="M551,332.040109 L-9.18496299e-14,332.040109 L-9.18496299e-14,12.642549 C0.00806330686,5.66343308 5.6605405,0.00782262099 12.6355449,-2.29759439e-14 L538.364326,-2.29759439e-14 C545.339353,0.00781803665 550.99187,5.66341032 551,12.642549 L551,332.040109 Z" id="路径" fill="#253369"></path>
                        <path d="M518.090968,308.858201 L32.9090648,308.858201 C27.5317685,308.852307 23.1740366,304.492126 23.1679988,299.11166 L23.1679988,32.928481 C23.1739915,27.5478994 27.5316534,23.1875204 32.9090648,23.1813412 L518.090968,23.1813412 C523.468377,23.1875248 527.826036,27.5479012 527.832034,32.928481 L527.832034,299.11166 C527.825991,304.492124 523.468262,308.852303 518.090968,308.858201 Z" id="路径" fill="#FFFFFF" fill-rule="nonzero"></path>
                        <g id="编组-4备份-3" transform="translate(53.000000, 26.000000)" fill-rule="nonzero">
                            <g id="编组-2" transform="translate(0.000000, 73.000000)">
                                <rect id="矩形" fill="#E5E5E5" x="0" y="0" width="102" height="10" rx="5"></rect>
                                <rect id="矩形" fill="#E5E5E5" x="0" y="23" width="102" height="10" rx="5"></rect>
                                <rect id="矩形" fill="#E5E5E5" x="0" y="47" width="102" height="10" rx="5"></rect>
                                <rect id="矩形" fill="#E5E5E5" x="0" y="71" width="102" height="10" rx="5"></rect>
                                <rect id="矩形" fill="#6C63FF" x="24" y="102" width="54" height="8" rx="4"></rect>
                            </g>
                            <g id="编组-3" transform="translate(151.000000, 62.000000)">
                                <rect id="矩形" fill="#E5E5E5" x="51" y="81" width="1" height="2"></rect>
                                <path d="M52.88956,140 L51,140 L51,134.333247 L52.88956,134.333247 L52.88956,140 Z M52.88956,128.666747 L51,128.666747 L51,123.000003 L52.88956,123.000003 L52.88956,128.666747 Z M52.88956,117.333269 L51,117.333269 L51,111.666741 L52.88956,111.666741 L52.88956,117.333269 Z M52.88956,106.000006 L51,106.000006 L51,100.333262 L52.88956,100.333262 L52.88956,106.000006 Z M52.88956,94.6667438 L51,94.6667438 L51,89 L52.88956,89 L52.88956,94.6667438 Z" id="形状" fill="#E5E5E5"></path>
                                <rect id="矩形" fill="#E5E5E5" x="51" y="146" width="1" height="2"></rect>
                                <rect id="矩形" fill="#E5E5E5" x="148" y="81" width="1" height="2"></rect>
                                <path d="M149.88958,140 L148,140 L148,134.333247 L149.88958,134.333247 L149.88958,140 Z M149.88958,128.666747 L148,128.666747 L148,123.000003 L149.88958,123.000003 L149.88958,128.666747 Z M149.88958,117.333269 L148,117.333269 L148,111.666741 L149.88958,111.666741 L149.88958,117.333269 Z M149.88958,106.000006 L148,106.000006 L148,100.333262 L149.88958,100.333262 L149.88958,106.000006 Z M149.88958,94.6667438 L148,94.6667438 L148,89 L149.88958,89 L149.88958,94.6667438 Z" id="形状" fill="#E5E5E5"></path>
                                <rect id="矩形" fill="#E5E5E5" x="148" y="146" width="1" height="2"></rect>
                                <rect id="矩形" fill="#E5E5E5" x="196" y="30" width="1" height="2"></rect>
                                <path d="M198.88956,140 L197,140 L197,134.578954 L198.88956,134.578954 L198.88956,140 Z M198.88956,129.157964 L197,129.157964 L197,123.736731 L198.88956,123.736731 L198.88956,129.157964 Z M198.88956,118.315712 L197,118.315712 L197,112.894694 L198.88956,112.894694 L198.88956,118.315712 Z M198.88956,107.473676 L197,107.473676 L197,102.052658 L198.88956,102.052658 L198.88956,107.473676 Z M198.88956,96.6316394 L197,96.6316394 L197,91.2104064 L198.88956,91.2104064 L198.88956,96.6316394 Z M198.88956,85.7893881 L197,85.7893881 L197,80.3683699 L198.88956,80.3683699 L198.88956,85.7893881 Z M198.88956,74.9473424 L197,74.9473424 L197,69.5263241 L198.88956,69.5263241 L198.88956,74.9473424 Z M198.88956,64.1053059 L197,64.1053059 L197,58.6842877 L198.88956,58.6842877 L198.88956,64.1053059 Z M198.88956,53.2630547 L197,53.2630547 L197,47.8420364 L198.88956,47.8420364 L198.88956,53.2630547 Z M198.88956,42.4210182 L197,42.4210182 L197,37 L198.88956,37 L198.88956,42.4210182 Z" id="形状" fill="#E5E5E5"></path>
                                <rect id="矩形" fill="#E5E5E5" x="196" y="146" width="1" height="2"></rect>
                                <rect id="矩形" fill="#E5E5E5" x="245" y="8" width="1" height="2"></rect>
                                <path d="M246.88958,141 L245,141 L245,135.565112 L246.88958,135.565112 L246.88958,141 Z M246.88958,130.130441 L245,130.130441 L245,124.695563 L246.88958,124.695563 L246.88958,130.130441 Z M246.88958,119.260891 L245,119.260891 L245,113.826004 L246.88958,113.826004 L246.88958,119.260891 Z M246.88958,108.391332 L245,108.391332 L245,102.956445 L246.88958,102.956445 L246.88958,108.391332 Z M246.88958,97.521773 L245,97.521773 L245,92.0868854 L246.88958,92.0868854 L246.88958,97.521773 Z M246.88958,86.6522234 L245,86.6522234 L245,81.2173357 L246.88958,81.2173357 L246.88958,86.6522234 Z M246.88958,75.7826643 L245,75.7826643 L245,70.3477766 L246.88958,70.3477766 L246.88958,75.7826643 Z M246.88958,64.9131052 L245,64.9131052 L245,59.478227 L246.88958,59.478227 L246.88958,64.9131052 Z M246.88958,54.0435555 L245,54.0435555 L245,48.6086679 L246.88958,48.6086679 L246.88958,54.0435555 Z M246.88958,43.1739964 L245,43.1739964 L245,37.7391088 L246.88958,37.7391088 L246.88958,43.1739964 Z M246.88958,32.3044373 L245,32.3044373 L245,26.8695497 L246.88958,26.8695497 L246.88958,32.3044373 Z M246.88958,21.4348782 L245,21.4348782 L245,16 L246.88958,16 L246.88958,21.4348782 Z" id="形状" fill="#E5E5E5"></path>
                                <rect id="矩形" fill="#E5E5E5" x="245" y="146" width="1" height="2"></rect>
                                <rect id="矩形" fill="#E5E5E5" x="99" y="46" width="1" height="2"></rect>
                                <path d="M100.88956,140 L99,140 L99,134.882459 L100.88956,134.882459 L100.88956,140 Z M100.88956,129.764694 L99,129.764694 L99,124.647153 L100.88956,124.647153 L100.88956,129.764694 Z M100.88956,119.529388 L99,119.529388 L99,114.411846 L100.88956,114.411846 L100.88956,119.529388 Z M100.88956,109.294081 L99,109.294081 L99,104.17654 L100.88956,104.17654 L100.88956,109.294081 Z M100.88956,99.0587753 L99,99.0587753 L99,93.941234 L100.88956,93.941234 L100.88956,99.0587753 Z M100.88956,88.8234691 L99,88.8234691 L99,83.7059185 L100.88956,83.7059185 L100.88956,88.8234691 Z M100.88956,78.588163 L99,78.588163 L99,73.4705844 L100.88956,73.4705844 L100.88956,78.588163 Z M100.88956,68.3528568 L99,68.3528568 L99,63.2353062 L100.88956,63.2353062 L100.88956,68.3528568 Z M100.88956,58.1175506 L99,58.1175506 L99,53 L100.88956,53 L100.88956,58.1175506 Z" id="形状" fill="#E5E5E5"></path>
                                <rect id="矩形" fill="#E5E5E5" x="99" y="146" width="1" height="2"></rect>
                                <path d="M1.91747081,6 C2.4474858,6 2.92753251,6.21546309 3.27493888,6.56445834 C3.62069751,6.9117983 3.83494163,7.39153705 3.83494163,7.9216669 L3.83494163,7.9216669 L3.83494163,147.156657 L295.082529,147.156657 C295.612544,147.156657 296.092591,147.37212 296.439997,147.721115 C296.785756,148.068455 297,148.548194 297,149.078324 C297,149.608451 296.785757,150.088192 296.44,150.435535 C296.092592,150.784534 295.612544,151 295.082529,151 L295.082529,151 L1.91747081,151 C1.38746705,151 0.907417068,150.784537 0.560006766,150.435538 C0.214244239,150.088194 0,149.608452 0,149.078333 L0,149.078333 L0,7.9216669 C0,7.39153705 0.214244123,6.9117983 0.560002746,6.56445834 C0.90740912,6.21546309 1.38745583,6 1.91747081,6 Z" id="路径" fill="#3F3D56"></path>
                                <polygon id="路径" fill="#3F3D56" points="245.869835 5.69712453 247.299647 9.25872538 198.252263 29.0892503 148.846469 83.3461764 100.076451 46.689174 51.897007 82.9027914 49.6023749 79.8292707 100.076451 41.8912418 148.361193 78.1842005 196.009208 25.8579941"></polygon>
                                <circle id="椭圆形" fill="#6C63FF" cx="52.5" cy="80.5" r="7.5"></circle>
                                <circle id="椭圆形" fill="#6C63FF" cx="101.5" cy="44.5" r="7.5"></circle>
                                <circle id="椭圆形" fill="#6C63FF" cx="148.5" cy="80.5" r="7.5"></circle>
                                <circle id="椭圆形" fill="#6C63FF" cx="197.5" cy="27.5" r="7.5"></circle>
                                <circle id="椭圆形" fill="#6C63FF" cx="246.5" cy="7.5" r="7.5"></circle>
                            </g>
                            <rect id="矩形" fill="#E5E5E5" x="124" y="0" width="2" height="280"></rect>
                        </g>
                    </g>
                    <g id="编组-2备份-3" transform="translate(557.000000, 75.000000)">
                        <g id="椭圆形">
                            <use fill="black" fill-opacity="1" filter="url(#filter-7)" xlink:href="#path-6"></use>
                            <use fill="url(#linearGradient-5)" fill-rule="evenodd" xlink:href="#path-6"></use>
                        </g>
                        <path d="M62.3055556,52.553373 L62.3055556,36.2301587 C62.3055556,35.243936 61.5220539,34.4444444 60.5555556,34.4444444 C59.5890572,34.4444444 58.8055556,35.243936 58.8055556,36.2301587 L58.8055556,52.553373 C55.7920556,53.3498016 53.5555556,56.1194444 53.5555556,59.4444444 C53.5555556,62.7694444 55.7920556,65.5390873 58.8055556,66.3355159 L58.8055556,82.6087302 C58.8055556,83.6230159 59.5895556,84.4444444 60.5555556,84.4444444 C61.5215556,84.4444444 62.3055556,83.6230159 62.3055556,82.6069444 L62.3055556,66.3337302 C65.3190556,65.5373016 67.5555556,62.7676587 67.5555556,59.4426587 C67.5555556,56.1176587 65.3190556,53.3498016 62.3055556,52.553373 Z M44.2583056,70.3962302 C44.2688056,70.315873 44.3055556,70.2426587 44.3055556,70.1587302 L44.3055556,36.2301587 C44.3055556,35.243936 43.5220539,34.4444444 42.5555556,34.4444444 C41.5890572,34.4444444 40.8055556,35.243936 40.8055556,36.2301587 L40.8055556,70.1587302 C40.8055556,70.2426587 40.8423056,70.315873 40.8528056,70.3962302 C37.7443172,71.1864214 35.5608594,74.03272 35.5555556,77.3015873 C35.5555556,81.2464784 38.6895623,84.4444444 42.5555556,84.4444444 C46.4215488,84.4444444 49.5555556,81.2464784 49.5555556,77.3015873 C49.5502517,74.03272 47.366794,71.1864214 44.2583056,70.3962302 Z M43.0546808,80.4444444 C41.8042513,80.4441318 40.6489735,79.7767468 40.0240294,78.6936868 C39.3990852,77.6106268 39.3994187,76.2764344 40.0249041,75.1936869 C40.6503896,74.1109394 41.8060009,73.444132 43.0564304,73.4444444 C44.9894269,73.4449277 46.5560386,75.0123227 46.5555556,76.9453192 C46.5550723,78.8783158 44.9876774,80.4449274 43.0546808,80.4444444 L43.0546808,80.4444444 Z M85.5555556,41.5873016 C85.5555556,37.6424105 82.4215488,34.4444444 78.5555556,34.4444444 C74.6895623,34.4444444 71.5555556,37.6424105 71.5555556,41.5873016 C71.5608594,44.8561689 73.7443172,47.7024675 76.8528056,48.4926587 C76.8423056,48.5730159 76.8055556,48.6462302 76.8055556,48.7301587 L76.8055556,82.6587302 C76.8055556,83.6449529 77.5890572,84.4444444 78.5555556,84.4444444 C79.5220539,84.4444444 80.3055556,83.6449529 80.3055556,82.6587302 L80.3055556,48.7301587 C80.3055556,48.6462302 80.2688056,48.5730159 80.2583056,48.4926587 C83.366794,47.7024675 85.5502517,44.8561689 85.5555556,41.5873016 L85.5555556,41.5873016 Z M78.0546808,45.4444444 C76.8042513,45.4441318 75.6489735,44.7767468 75.0240294,43.6936868 C74.3990852,42.6106268 74.3994187,41.2764344 75.0249041,40.1936869 C75.6503896,39.1109394 76.8060009,38.444132 78.0564304,38.4444444 C79.9894269,38.4449277 81.5560386,40.0123227 81.5555556,41.9453192 C81.5550723,43.8783158 79.9876774,45.4449274 78.0546808,45.4444444 L78.0546808,45.4444444 Z" id="形状" fill="#FFFFFF" fill-rule="nonzero" transform="translate(60.555556, 59.444444) rotate(90.000000) translate(-60.555556, -59.444444) "></path>
                    </g>
                    <g id="编组-10备份" transform="translate(21.000000, 384.000000)">
                        <g id="椭圆形">
                            <use fill="black" fill-opacity="1" filter="url(#filter-10)" xlink:href="#path-9"></use>
                            <use fill="url(#linearGradient-8)" fill-rule="evenodd" xlink:href="#path-9"></use>
                        </g>
                        <g id="基础管理" transform="translate(31.578947, 33.684211)" fill="#FFFFFF" fill-rule="nonzero">
                            <path d="M53.8484416,49.348601 C50.7215029,38.7447502 41.3431334,31.1939386 30.3159719,30.4018909 L30.3159719,18.94671 L37.8948671,18.94671 C38.9412942,18.94671 39.7895909,18.0984369 39.7895909,17.052039 L39.7895909,9.47335502 C39.7895909,8.42695712 38.9412942,7.57868402 37.8948671,7.57868402 L18.947629,7.57868402 C17.9012019,7.57868402 17.0529052,8.42695712 17.0529052,9.47335502 L17.0529052,17.052039 C17.0529052,18.0984369 17.9012019,18.94671 18.947629,18.94671 L26.5265242,18.94671 L26.5265242,30.4018909 C15.498146,31.1929525 6.11816832,38.743843 2.99026502,49.348601 C1.04607354,49.7682624 -0.24280147,51.6195854 0.03847553,53.5885124 C0.31975253,55.5574393 2.07544882,56.9738451 4.05938198,56.8323737 C6.04331514,56.6909023 7.58025281,55.0397036 7.5792861,53.0507881 C7.5792861,52.0750326 7.20034134,51.1940105 6.59402972,50.523297 C9.21450164,41.4770208 17.1412755,34.9828231 26.5265242,34.1931276 L26.5265242,49.7881647 C25.3991636,50.4437208 24.6318004,51.6525209 24.6318004,53.0526828 C24.6318004,55.1454786 26.3283939,56.8421053 28.4212481,56.8421053 C30.5141022,56.8421053 32.2106957,55.1454786 32.2106957,53.0526828 C32.2106957,51.6544156 31.4433325,50.4456155 30.3159719,49.7881647 L30.3159719,34.1931276 C39.7019525,34.9830805 47.628605,41.4793032 50.2465717,50.5270864 C49.6159356,51.2165125 49.2652737,52.1164521 49.26321,53.0507881 C49.26321,55.1435839 50.9598035,56.8401301 53.0526576,56.8401301 C55.1455118,56.8401301 56.8421053,55.1435839 56.8421053,53.0507881 C56.8408531,51.2656514 55.5938215,49.7234794 53.8484416,49.348601 Z M15.1581814,26.5253941 L19.7453077,26.5253941 C20.7917348,26.5253941 21.6400315,25.677121 21.6400315,24.6307231 C21.6400315,23.5843252 20.7917348,22.7360521 19.7453077,22.7360521 L15.1581814,22.7360521 C14.1117543,22.7360521 13.2634575,21.887779 13.2634575,20.8413811 L13.2634575,5.68401301 C13.2634575,4.63761511 14.1117543,3.78934201 15.1581814,3.78934201 L41.6843148,3.78934201 C42.7307418,3.78934201 43.5790386,4.63761511 43.5790386,5.68401301 L43.5790386,20.8413811 C43.5790386,21.887779 42.7307418,22.7360521 41.6843148,22.7360521 L36.3184569,22.7360521 C35.2720298,22.7360521 34.4237331,23.5843252 34.4237331,24.6307231 C34.4237331,25.677121 35.2720298,26.5253941 36.3184569,26.5253941 L41.6843148,26.5253941 C44.823596,26.5253941 47.3684862,23.9805748 47.3684862,20.8413811 L47.3684862,5.68401301 C47.3684862,2.54481931 44.823596,0 41.6843148,0 L15.1581814,0 C12.0189002,0 9.47400992,2.54481931 9.47400992,5.68401301 L9.47400992,20.8413811 C9.47400992,23.9805748 12.0189002,26.5253941 15.1581814,26.5253941 Z" id="形状"></path>
                        </g>
                    </g>
                    <g id="编组-3备份" transform="translate(232.000000, 286.000000)">
                        <path d="M59,203.99164 C59,203.99164 103.263377,205.834902 127.704116,154.779595 C152.144855,103.724288 152.780111,97.0524113 176.20193,97.0524113 C208.518353,94.5616847 208.518353,181.673841 251.111609,181.673841 C293.704866,181.673841 284.679435,142.090518 313.199133,142.090518 C355.185064,142.090518 336.371622,203.99164 388.805921,203.99164 C441.24022,203.99164 433.831048,137.125 484,137.125" id="路径-14备份" stroke="url(#linearGradient-11)" stroke-width="6" stroke-linecap="round"></path>
                        <g id="编组-2" transform="translate(300.000000, 126.000000)">
                            <g id="椭圆形">
                                <use fill="black" fill-opacity="1" filter="url(#filter-13)" xlink:href="#path-12"></use>
                                <use fill="#FFFFFF" fill-rule="evenodd" xlink:href="#path-12"></use>
                            </g>
                            <circle id="椭圆形备份-7" fill="#5E7DFA" cx="15" cy="15" r="6.11111111"></circle>
                        </g>
                        <g id="编组-2备份" transform="translate(157.000000, 84.000000)">
                            <g id="椭圆形">
                                <use fill="black" fill-opacity="1" filter="url(#filter-15)" xlink:href="#path-14"></use>
                                <use fill="#FFFFFF" fill-rule="evenodd" xlink:href="#path-14"></use>
                            </g>
                            <circle id="椭圆形备份-7" fill="#5E7DFA" cx="15" cy="15" r="6.11111111"></circle>
                        </g>
                    </g>
                </g>
            </g>
        </g>
    </g>
</svg>