<?xml version="1.0" encoding="utf-8"?>
<!-- Generator: Adobe Illustrator 23.0.0, SVG Export Plug-In . SVG Version: 6.00 Build 0)  -->
<svg version="1.1" id="图层_1" xmlns="http://www.w3.org/2000/svg" xmlns:xlink="http://www.w3.org/1999/xlink" x="0px" y="0px"
	 viewBox="0 0 400 400" style="enable-background:new 0 0 400 400;" xml:space="preserve">
<style type="text/css">
	.st0{fill:#2B2D2B;}
	.st1{fill:none;stroke:#1E7220;stroke-width:4;stroke-linecap:round;stroke-miterlimit:10;}
	.st2{fill:#226D32;stroke:#000000;stroke-width:5;stroke-miterlimit:10;}
	.st3{fill:#52AF5D;}
	.st4{fill:#15591D;stroke:#000000;stroke-miterlimit:10;}
	.st5{fill:#FFFFFF;stroke:#357C42;stroke-width:4;stroke-miterlimit:10;}
	.st6{clip-path:url(#SVGID_2_);fill:#184C18;stroke:#000000;stroke-miterlimit:10;}
	.st7{clip-path:url(#SVGID_4_);fill:#E84252;}
	.st8{clip-path:url(#SVGID_4_);fill:#E01212;}
	.st9{clip-path:url(#SVGID_6_);fill:#E84252;}
	.st10{clip-path:url(#SVGID_6_);fill:#E01212;}
	.st11{fill:#0E2B0E;}
	.st12{fill:#376037;}
	.st13{fill:#102810;}
	.st14{fill:#FFFFFF;}
	.st15{fill:none;stroke:#000000;stroke-linecap:round;stroke-miterlimit:10;}
	.st16{fill:#206320;}
	.st17{fill:none;stroke:#2E702E;stroke-miterlimit:10;}
	.st18{fill:#E9EEF2;}
	.st19{fill:none;}
	.st20{fill:none;stroke:#000000;stroke-width:3;stroke-linecap:round;stroke-miterlimit:10;}
	.st21{fill:#F7D611;}
	.st22{fill:#C669ED;}
	.st23{fill:#A2DBF2;}
	.st24{fill:#A3EFCE;}
	.st25{fill:none;stroke:#F7883C;stroke-width:3;stroke-linecap:round;stroke-miterlimit:10;}
	.st26{fill:#6AC3EA;}
	.st27{font-family:'FZSJ-LXQWTJW--GB1-0';}
	.st28{font-size:16.5855px;}
	.st29{letter-spacing:-1;}
</style>
<g>
	
		<ellipse transform="matrix(0.9897 -0.1429 0.1429 0.9897 -36.5842 39.6839)" class="st0" cx="258.07" cy="274.62" rx="64.43" ry="13.76"/>
	<g>
		<path class="st1" d="M253.84,142.48c0,0,6.35-13.67,16.6-12.21s4.88,14.65,0,12.21s-7.32-11.23,0.98-17.09
			c8.3-5.86,14.65,3.91,16.11,7.32"/>
		<circle class="st2" cx="199.83" cy="203.59" r="83.54"/>
		<circle class="st3" cx="197.04" cy="205.44" r="77.86"/>
		<path class="st4" d="M133.34,152.91c0,0,11.48-6.06,17.39-7.53c5.92-1.48,10.36,0,15.54-3.7s8.88-5.18,17.76-7.4
			c8.88-2.22,14.8-3.7,19.24-6.66c4.44-2.96,11.99-5.93,15.98-4.81s7.98,4.13,7.98,4.13s-5.46,6.6-12.86,7.34
			c-7.4,0.74-11.1,6.66-15.54,8.14c-4.44,1.48-11.84,3.7-17.02,4.44c-5.18,0.74-11.1,7.4-17.02,8.14
			c-5.92,0.74-15.54,2.96-19.98,2.96s-16.1,5.95-16.1,5.95S130.74,154.52,133.34,152.91z"/>
		<path class="st4" d="M119.96,192.25c0,0,22.62-10.26,31.44-12.46s15.43,0,23.15-5.51c7.72-5.51,13.23-7.72,26.46-11.02
			c13.23-3.31,22.05-5.51,28.66-9.92c6.61-4.41,21.09-11.97,27.04-10.31c5.95,1.66,8.66,9.29,8.66,9.29s-8.14,9.84-19.16,10.94
			s-16.54,9.92-23.15,12.13c-6.61,2.2-17.64,5.51-25.36,6.61c-7.72,1.1-16.54,11.02-25.36,12.13s-23.15,4.41-29.77,4.41
			s-23.99,8.87-23.99,8.87S116.09,194.65,119.96,192.25z"/>
		<path class="st4" d="M276.93,194.84c0,0-23.89,10.84-33.21,13.16s-16.3,0-24.45,5.82c-8.15,5.82-13.97,8.15-27.95,11.64
			c-13.97,3.49-23.29,5.82-30.28,10.48c-6.99,4.66-22.28,12.64-28.56,10.89c-6.28-1.75-9.15-9.81-9.15-9.81s8.6-10.39,20.24-11.56
			s17.47-10.48,24.45-12.81c6.99-2.33,18.63-5.82,26.78-6.99c8.15-1.16,17.47-11.64,26.78-12.81c9.32-1.16,24.45-4.66,31.44-4.66
			c6.99,0,25.34-9.37,25.34-9.37S281.02,192.29,276.93,194.84z"/>
		<path class="st4" d="M271.24,245.74c0,0-14,9.23-20.18,10.93c-6.18,1.7-11.21,0.36-16.62,4.62c-5.41,4.25-9.19,5.76-18.46,8.31
			c-9.27,2.55-14.75,4.91-19.38,8.31s-17,7.1-21.16,5.82c-4.17-1.28-11.14-5.82-11.14-5.82s10.78-8.94,18.5-9.79
			c7.72-0.85,11.58-7.65,16.22-9.36c4.63-1.7,12.36-4.25,17.76-5.1c5.41-0.85,11.58-8.5,17.76-9.36c6.18-0.85,16.22-3.4,20.85-3.4
			s21.52-6.38,21.52-6.38S273.95,243.88,271.24,245.74z"/>
		<g>
			<circle class="st5" cx="188.99" cy="206.59" r="63.46"/>
			<g>
				<defs>
					<circle id="SVGID_1_" cx="188.99" cy="206.59" r="62.01"/>
				</defs>
				<clipPath id="SVGID_2_">
					<use xlink:href="#SVGID_1_"  style="overflow:visible;"/>
				</clipPath>
				<ellipse class="st6" cx="181.65" cy="148.86" rx="2.71" ry="9.66"/>
				<ellipse class="st6" cx="190.43" cy="149.58" rx="2.71" ry="9.66"/>
				<ellipse class="st6" cx="171.97" cy="149.39" rx="2.71" ry="8.95"/>
			</g>
			<g>
				<defs>
					<circle id="SVGID_3_" cx="188.07" cy="205.67" r="63.46"/>
				</defs>
				<clipPath id="SVGID_4_">
					<use xlink:href="#SVGID_3_"  style="overflow:visible;"/>
				</clipPath>
				<circle class="st7" cx="247.69" cy="234.58" r="48.92"/>
				<circle class="st8" cx="221.99" cy="227.59" r="17.54"/>
			</g>
			<g>
				<defs>
					<circle id="SVGID_5_" cx="190.83" cy="205.93" r="63.46"/>
				</defs>
				<clipPath id="SVGID_6_">
					<use xlink:href="#SVGID_5_"  style="overflow:visible;"/>
				</clipPath>
				<circle class="st9" cx="108.91" cy="234.78" r="47.54"/>
				<circle class="st10" cx="137.06" cy="226.93" r="15.69"/>
			</g>
			<g>
				<circle class="st11" cx="159.64" cy="189.97" r="12.18"/>
				<circle class="st12" cx="158.87" cy="189.2" r="10.19"/>
				<circle class="st13" cx="158.26" cy="187.37" r="7.15"/>
				<circle class="st14" cx="158.1" cy="183.82" r="1.22"/>
			</g>
			<g>
				<circle class="st11" cx="201.05" cy="189.97" r="12.18"/>
				<circle class="st12" cx="200.29" cy="189.2" r="10.19"/>
				<circle class="st13" cx="199.68" cy="187.37" r="7.15"/>
				<circle class="st14" cx="199.52" cy="183.82" r="1.22"/>
			</g>
			<path d="M185.69,226.68c-0.56,1.5-1.83,2.59-3.27,2.71c-1.33,0.12-2.54-0.52-3.31-1.57c-1,1.25-2.62,1.85-4.33,1.16
				c-1.51-0.61-2.45-2.29-2.44-4.09c0-0.7,0.11-1.35,0.38-1.93l0,0l5.74-6.67c0.35-0.41,0.94-0.41,1.3,0l5.74,6.67l0,0
				C186.01,224.01,186.2,225.33,185.69,226.68z"/>
			<line class="st15" x1="215.81" y1="216.75" x2="249.38" y2="208.36"/>
			<line class="st15" x1="216.86" y1="226.19" x2="250.42" y2="234.58"/>
			<line class="st15" x1="216.34" y1="220.94" x2="263.53" y2="220.94"/>
			<line class="st15" x1="146.3" y1="218.85" x2="124.54" y2="210.46"/>
			<line class="st15" x1="145.62" y1="228.29" x2="123.86" y2="236.68"/>
			<line class="st15" x1="145.95" y1="223.04" x2="115.36" y2="223.04"/>
		</g>
		<g>
			<path class="st16" d="M258.28,136.21c0,0-30.03,0.59-30.03,13.54s11.78-4.71,11.78-4.71s-17.66,24.73-11.78,28.26
				s14.13-15.31,14.13-15.31s-4.71,17.66,0,22.37s5.89-20.02,5.89-20.02s7.07,14.13,11.78,12.95c4.71-1.18-3.53-15.31-3.53-15.31
				s4.71,4.71,10.6,2.36s-9.42-8.24-9.42-8.24s12.95,3.53,16.49,0S258.28,136.21,258.28,136.21L258.28,136.21z"/>
			<path class="st17" d="M241.96,174.48c-0.05-9.49,12.23-36.08,12.23-36.08s2.32,8.99,15.27,11.35"/>
			<path class="st17" d="M248.07,152.83l9.61,15.76L248.07,152.83z"/>
			<path class="st17" d="M249.32,149.7c0,0,7.19,7.11,14.25,9.47"/>
			<path class="st17" d="M232.96,166.24c1.18-7.07,20.02-28.26,20.02-28.26s-17.66,4.71-20.02,9.42"/>
		</g>
		<g>
			<path class="st16" d="M256.4,138.17c0,0,7.6-23.09-2.3-26.57s0.44,10.26,0.44,10.26s-14.16-20.12-18.43-16.57
				c-4.28,3.55,7.91,14.9,7.91,14.9s-12.23-8.33-17.09-5.99c-4.86,2.34,13.71,9.86,13.71,9.86s-12.69,1.61-13.05,5.52
				s12.64,1.4,12.64,1.4s-4.86,2.34-4.64,7.46c0.22,5.13,8.82-4.99,8.82-4.99s-6.17,8.95-4.42,12.59S256.4,138.17,256.4,138.17
				L256.4,138.17z"/>
			<path class="st17" d="M231.55,115.45c7.26,2.51,24.28,19.01,24.28,19.01s-7.49-0.64-12.76,8.62"/>
			<path class="st17" d="M246.44,125.92l-14.61,3.12L246.44,125.92z"/>
			<path class="st17" d="M248.49,127.72c0,0-7.36,3.58-11.05,8.35"/>
			<path class="st17" d="M240.25,110.78c5.08,2.79,16.22,22.86,16.22,22.86s1.13-14.75-1.83-17.82"/>
		</g>
	</g>
	<circle class="st18" cx="166.6" cy="171.29" r="4.15"/>
	<circle class="st18" cx="189.22" cy="171.75" r="4.15"/>
</g>
<path id="SVGID_x5F_7_x5F_" class="st19" d="M97.19,195.21c0,0,4.01-77.59,78.82-90.51"/>
<text><textPath  xlink:href="#SVGID_x5F_7_x5F_" startOffset="0.83%">
<tspan  style="font-family:'FZCHAOZYTS--GB1-0'; font-size:17.4984px; letter-spacing:-100;">到了吃瓜的季节</tspan></textPath>
</text>
<path class="st20" d="M114.89,166.89c0,0,10.96-40.2,58.68-49.79"/>
<g>
	<path class="st21" d="M153.6,84.17L153.6,84.17c-0.23,0.18-0.57,0.13-0.75-0.11l-2.89-3.83c-0.18-0.23-0.13-0.57,0.11-0.75v0
		c0.23-0.18,0.57-0.13,0.75,0.11l2.89,3.83C153.89,83.66,153.84,83.99,153.6,84.17z"/>
	<path class="st21" d="M159.54,92.05L159.54,92.05c-0.23,0.18-0.57,0.13-0.75-0.11l-2.89-3.83c-0.18-0.23-0.13-0.57,0.11-0.75l0,0
		c0.23-0.18,0.57-0.13,0.75,0.11l2.89,3.83C159.82,91.54,159.77,91.88,159.54,92.05z"/>
	<path class="st21" d="M153.36,85.49L153.36,85.49c-0.04,0.29-0.31,0.49-0.6,0.45L148,85.27c-0.29-0.04-0.49-0.31-0.45-0.6l0,0
		c0.04-0.29,0.31-0.49,0.6-0.45l4.75,0.67C153.2,84.93,153.4,85.2,153.36,85.49z"/>
	<path class="st21" d="M163.13,86.87L163.13,86.87c-0.04,0.29-0.31,0.49-0.6,0.45l-4.75-0.67c-0.29-0.04-0.49-0.31-0.45-0.6l0,0
		c0.04-0.29,0.31-0.49,0.6-0.45l4.75,0.67C162.97,86.3,163.17,86.58,163.13,86.87z"/>
	<path class="st21" d="M154.28,86.97L154.28,86.97c0.18,0.23,0.13,0.57-0.11,0.75l-3.83,2.89c-0.23,0.18-0.57,0.13-0.75-0.11v0
		c-0.18-0.23-0.13-0.57,0.11-0.75l3.83-2.89C153.76,86.69,154.1,86.74,154.28,86.97z"/>
	<path class="st21" d="M162.16,81.04L162.16,81.04c0.18,0.23,0.13,0.57-0.11,0.75l-3.83,2.89c-0.23,0.18-0.57,0.13-0.75-0.11l0,0
		c-0.18-0.23-0.13-0.57,0.11-0.75l3.83-2.89C161.65,80.75,161.98,80.8,162.16,81.04z"/>
	<path class="st21" d="M155.06,87.75L155.06,87.75c0.29,0.04,0.49,0.31,0.45,0.6l-0.67,4.75c-0.04,0.29-0.31,0.49-0.6,0.45l0,0
		c-0.29-0.04-0.49-0.31-0.45-0.6l0.67-4.75C154.5,87.91,154.77,87.71,155.06,87.75z"/>
	<path class="st21" d="M156.44,77.98L156.44,77.98c0.29,0.04,0.49,0.31,0.45,0.6l-0.67,4.75c-0.04,0.29-0.31,0.49-0.6,0.45l0,0
		c-0.29-0.04-0.49-0.31-0.45-0.6l0.67-4.75C155.88,78.14,156.15,77.94,156.44,77.98z"/>
</g>
<path class="st22" d="M70.26,193.08L70.26,193.08c-2.01,0-3.65-1.64-3.65-3.65l0,0c0-2.01,1.64-3.65,3.65-3.65h0
	c2.01,0,3.65,1.64,3.65,3.65l0,0C73.91,191.43,72.26,193.08,70.26,193.08z"/>
<circle class="st23" cx="77.22" cy="202.36" r="1.33"/>
<circle class="st23" cx="160.15" cy="104.84" r="1.33"/>
<circle class="st24" cx="79.88" cy="181.14" r="1.33"/>
<circle class="st24" cx="176.07" cy="94.89" r="1.33"/>
<line class="st25" x1="68.48" y1="169.19" x2="64.41" y2="174.84"/>
<line class="st25" x1="63.62" y1="169.98" x2="69.27" y2="174.05"/>
<circle class="st26" cx="134.61" cy="99.2" r="2.32"/>
<text transform="matrix(1 0 0 1 285.3818 331.6729)" class="st27 st28 st29">@西瓜喵</text>
</svg>
